<svg width="40" height="41" viewBox="0 0 40 41" fill="none" xmlns="http://www.w3.org/2000/svg">
<circle cx="20" cy="20.5" r="20" fill="#38BB2C" fill-opacity="0.1"/>
<path d="M20 30.3809C16.1905 30.3809 13.0952 27.6476 13.0952 24.2857V20.7619C13.0952 20.3714 13.419 20.0476 13.8095 20.0476C14.2 20.0476 14.5238 20.3714 14.5238 20.7619C14.5238 23.2571 16.8762 25.1428 20 25.1428C23.1238 25.1428 25.4762 23.2571 25.4762 20.7619C25.4762 20.3714 25.8 20.0476 26.1905 20.0476C26.5809 20.0476 26.9047 20.3714 26.9047 20.7619V24.2857C26.9047 27.6476 23.8095 30.3809 20 30.3809ZM14.5238 24.3905C14.5905 26.9143 17.019 28.9524 20 28.9524C22.9809 28.9524 25.4095 26.9143 25.4762 24.3905C24.2381 25.7333 22.2762 26.5714 20 26.5714C17.7238 26.5714 15.7714 25.7333 14.5238 24.3905Z" fill="#38BB2C"/>
<path d="M20 21.8094C17.3714 21.8094 15.0095 20.6285 13.8571 18.7237C13.3619 17.9142 13.0952 16.9713 13.0952 15.9999C13.0952 14.3618 13.8286 12.8189 15.1524 11.657C16.4476 10.5237 18.1714 9.90466 20 9.90466C21.8285 9.90466 23.5428 10.5237 24.8476 11.6475C26.1714 12.819 26.9047 14.3618 26.9047 15.9999C26.9047 16.9713 26.6381 17.9047 26.1428 18.7237C24.9905 20.6285 22.6285 21.8094 20 21.8094ZM20 11.3332C18.5143 11.3332 17.1238 11.8285 16.0857 12.7428C15.0762 13.6189 14.5238 14.7809 14.5238 15.9999C14.5238 16.7142 14.7142 17.3809 15.0762 17.9809C15.9809 19.4666 17.8666 20.3809 20 20.3809C22.1333 20.3809 24.019 19.457 24.9238 17.9809C25.2952 17.3809 25.4762 16.7142 25.4762 15.9999C25.4762 14.7809 24.9238 13.6189 23.9047 12.7237C22.8666 11.8285 21.4857 11.3332 20 11.3332Z" fill="#38BB2C"/>
<path d="M20 26.5713C16.0666 26.5713 13.0952 24.0761 13.0952 20.7618V15.9999C13.0952 12.638 16.1905 9.90466 20 9.90466C21.8285 9.90466 23.5428 10.5237 24.8476 11.6475C26.1714 12.819 26.9047 14.3618 26.9047 15.9999V20.7618C26.9047 24.0761 23.9333 26.5713 20 26.5713ZM20 11.3332C16.9809 11.3332 14.5238 13.4285 14.5238 15.9999V20.7618C14.5238 23.257 16.8762 25.1428 20 25.1428C23.1238 25.1428 25.4762 23.257 25.4762 20.7618V15.9999C25.4762 14.7809 24.9238 13.6189 23.9047 12.7237C22.8666 11.8285 21.4857 11.3332 20 11.3332Z" fill="#38BB2C"/>
</svg>
