<svg width="252" height="252" viewBox="0 0 252 252" fill="none" xmlns="http://www.w3.org/2000/svg">
<g clip-path="url(#clip0_1041_6010)">
<path d="M126.034 251.932C195.603 251.932 252 195.535 252 125.966C252 56.397 195.603 0 126.034 0C56.4644 0 0.0673828 56.397 0.0673828 125.966C0.0673828 195.535 56.4644 251.932 126.034 251.932Z" fill="#F2E6DC"/>
<path d="M205.657 89.8023C226.198 89.8023 242.849 73.1507 242.849 52.6099C242.849 32.0691 226.198 15.4175 205.657 15.4175C185.116 15.4175 168.464 32.0691 168.464 52.6099C168.464 73.1507 185.116 89.8023 205.657 89.8023Z" fill="#079675"/>
<mask id="mask0_1041_6010" style="mask-type:luminance" maskUnits="userSpaceOnUse" x="172" y="2" width="67" height="84">
<path d="M238.846 52.6099C238.846 70.939 223.987 85.7989 205.657 85.7989C187.328 85.7989 172.468 70.9404 172.468 52.6099C172.468 34.2808 187.326 2.6405 205.657 2.6405C223.987 2.6405 238.846 34.2808 238.846 52.6099Z" fill="white"/>
</mask>
<g mask="url(#mask0_1041_6010)">
<path d="M193.939 58.6687H243.096C243.094 58.3948 243.095 58.1236 243.092 57.8592C243.075 55.5079 241.169 53.6094 238.817 53.6094C235.476 53.6094 232.767 50.9001 232.767 47.5589V43.2526C232.767 39.9114 230.057 37.2021 226.716 37.2021C223.375 37.2021 220.666 34.4928 220.666 31.1516V17.1948H188.535V28.5979C188.535 33.24 185.907 37.4816 181.751 39.548C177.595 41.6144 174.965 45.8559 174.965 50.4981V60.2602L193.937 62.0967V58.6687H193.939Z" fill="#363E44"/>
<path d="M245.447 91.6512H160.986V59.8444L203.977 51.28L245.447 59.8444V91.6512Z" fill="white"/>
<path d="M216.038 30.145C222.33 23.8532 222.33 13.6522 216.038 7.36039C209.746 1.0686 199.545 1.06859 193.254 7.36038C186.962 13.6522 186.962 23.8532 193.254 30.145C199.545 36.4368 209.746 36.4368 216.038 30.145Z" fill="#363E44"/>
<path d="M212.835 32.0024H196.803V59.6034H212.835V32.0024Z" fill="#BC8271"/>
<path d="M217.949 24.6096C217.949 33.1918 212.004 42.2449 204.672 42.2449C197.34 42.2449 191.396 33.1918 191.396 24.6096C191.396 16.0274 197.34 9.06964 204.672 9.06964C212.004 9.06964 217.949 16.0274 217.949 24.6096Z" fill="#BC8271"/>
<path d="M204.672 42.5478C201.985 42.5478 199.346 41.3707 197.039 39.146C196.918 39.029 196.915 38.8376 197.031 38.7165C197.148 38.5953 197.339 38.5926 197.46 38.7082C199.652 40.8228 202.146 41.9406 204.672 41.9406C207.42 41.9406 210.098 40.6383 212.414 38.1727C212.529 38.0501 212.721 38.0446 212.843 38.1589C212.966 38.2732 212.971 38.4659 212.857 38.5884C210.423 41.1793 207.592 42.5478 204.672 42.5478Z" fill="#363E44"/>
<path d="M209.821 13.7022L210.721 19.2474H217.847C217.829 11.9689 211.923 6.07397 204.641 6.07397C197.357 6.07397 191.452 11.9689 191.434 19.2474H209.12L209.821 13.7022Z" fill="#363E44"/>
<path d="M192.763 30.5254C194.532 29.7184 194.994 26.9338 193.795 24.3059C192.596 21.678 190.19 20.2019 188.421 21.0089C186.653 21.8159 186.191 24.6004 187.39 27.2284C188.589 29.8563 190.995 31.3324 192.763 30.5254Z" fill="#BC8271"/>
<path d="M189.71 28.1174C189.64 28.1174 189.571 28.094 189.514 28.0444C189.081 27.6755 188.715 27.1799 188.456 26.6127C187.738 25.0377 188.056 23.3458 189.165 22.8392C189.588 22.6464 190.074 22.6423 190.569 22.8282C190.726 22.8874 190.806 23.0622 190.747 23.2191C190.688 23.3761 190.513 23.4559 190.356 23.3967C190.015 23.2687 189.69 23.266 189.417 23.3912C188.626 23.7519 188.438 25.1121 189.008 26.3607C189.231 26.8481 189.542 27.2721 189.907 27.5832C190.035 27.692 190.05 27.8833 189.942 28.0114C189.883 28.0816 189.797 28.1174 189.71 28.1174Z" fill="#363E44"/>
<path d="M192.29 30.5307C192.164 30.5307 192.044 30.4494 192.003 30.3228C191.4 28.5014 191.093 26.5796 191.093 24.6096C191.093 23.6307 191.17 22.6519 191.321 21.6993C191.347 21.5341 191.502 21.4198 191.668 21.4473C191.833 21.4735 191.946 21.6291 191.92 21.7943C191.773 22.7153 191.699 23.6624 191.699 24.6082C191.699 26.5135 191.995 28.3707 192.577 30.1314C192.629 30.2911 192.544 30.4618 192.384 30.5155C192.354 30.5265 192.322 30.5307 192.29 30.5307Z" fill="#363E44"/>
<path d="M215.412 24.3039C214.213 26.932 214.675 29.7171 216.443 30.5238C218.212 31.3305 220.617 29.8547 221.816 27.2266C223.015 24.5986 222.553 21.8135 220.785 21.0068C219.017 20.2001 216.611 21.6772 215.412 24.3039Z" fill="#BC8271"/>
<path d="M219.492 28.1174C219.407 28.1174 219.322 28.0816 219.261 28.0114C219.152 27.8834 219.167 27.692 219.295 27.5832C219.66 27.2721 219.971 26.8495 220.194 26.3608C220.764 25.1121 220.577 23.7533 219.785 23.3913C219.513 23.2674 219.188 23.2687 218.847 23.3968C218.69 23.456 218.515 23.3761 218.456 23.2192C218.396 23.0622 218.476 22.8874 218.633 22.8282C219.129 22.6423 219.615 22.6451 220.037 22.8392C221.147 23.3458 221.465 25.0378 220.746 26.6127C220.488 27.1813 220.121 27.6755 219.689 28.0444C219.631 28.094 219.562 28.1174 219.492 28.1174Z" fill="#363E44"/>
<path d="M216.912 30.5307C216.881 30.5307 216.849 30.5252 216.817 30.5155C216.658 30.4632 216.572 30.2911 216.625 30.1314C217.208 28.372 217.503 26.5135 217.503 24.6082C217.503 23.6624 217.429 22.7153 217.281 21.7943C217.255 21.6291 217.368 21.4735 217.533 21.4473C217.701 21.4198 217.854 21.5341 217.88 21.6993C218.032 22.6519 218.109 23.6307 218.109 24.6096C218.109 26.5796 217.803 28.5014 217.199 30.3228C217.159 30.4508 217.041 30.5307 216.912 30.5307Z" fill="#363E44"/>
<path d="M204.938 32.2915C204.838 32.2915 204.74 32.2419 204.682 32.151C204.592 32.0092 204.634 31.822 204.776 31.7325C205.189 31.4696 205.438 31.1722 205.515 30.846C205.595 30.51 205.474 30.2347 205.289 29.8176C205.142 29.483 204.974 29.1031 204.875 28.5937C204.748 27.9453 204.771 27.2583 204.945 26.5521C204.985 26.3896 205.15 26.2891 205.312 26.3291C205.475 26.369 205.575 26.5328 205.536 26.6966C205.384 27.3161 205.362 27.915 205.471 28.4767C205.558 28.9186 205.71 29.2655 205.845 29.5711C206.045 30.0227 206.233 30.4508 206.105 30.985C205.99 31.4696 205.653 31.8936 205.102 32.2433C205.05 32.2763 204.993 32.2915 204.938 32.2915Z" fill="#363E44"/>
<path d="M203.147 35.2032C202.585 35.2032 202.047 34.954 201.726 34.4956C201.353 33.9614 201.342 33.2207 201.696 32.6081C201.78 32.4636 201.966 32.414 202.111 32.498C202.255 32.582 202.305 32.7678 202.221 32.9124C201.984 33.3212 201.985 33.8072 202.223 34.1486C202.55 34.6181 203.242 34.7392 203.8 34.424C203.946 34.3414 204.131 34.3937 204.213 34.5396C204.295 34.6855 204.243 34.8714 204.097 34.9526C203.798 35.1219 203.468 35.2032 203.147 35.2032Z" fill="#363E44"/>
<path d="M191.538 17.9286C191.525 17.9286 191.513 17.9272 191.499 17.9258C191.332 17.9052 191.214 17.7537 191.236 17.5872C192.017 11.3494 196.927 6.52278 203.177 5.84821C203.341 5.83031 203.494 5.95008 203.512 6.11804C203.53 6.28461 203.41 6.43467 203.242 6.45257C197.273 7.09548 192.582 11.706 191.838 17.6629C191.82 17.8157 191.689 17.9286 191.538 17.9286Z" fill="#BC8271"/>
<path d="M217.684 17.4977C217.538 17.4977 217.408 17.3917 217.385 17.2416C216.443 11.3081 211.599 6.85454 205.606 6.41263C205.439 6.40024 205.313 6.25431 205.325 6.08773C205.337 5.92115 205.481 5.79587 205.65 5.80689C211.926 6.27083 216.998 10.9336 217.984 17.1466C218.01 17.3118 217.897 17.4674 217.732 17.4935C217.715 17.4963 217.7 17.4977 217.684 17.4977Z" fill="#BC8271"/>
<path d="M204.539 69.5678C216.335 69.5678 225.897 65.7316 225.897 60.9994C225.897 56.2671 216.335 52.4309 204.539 52.4309C192.743 52.4309 183.181 56.2671 183.181 60.9994C183.181 65.7316 192.743 69.5678 204.539 69.5678Z" fill="#BC8271"/>
<path d="M214.221 22.3753L214.187 22.3725C214.169 22.4441 214.121 22.5349 214.045 22.5336C213.954 22.6409 213.913 22.8144 213.852 22.9287C213.742 23.1352 213.43 22.9521 213.54 22.7456C213.614 22.6065 213.123 22.8722 212.907 22.9548C212.22 23.2192 211.523 23.4518 210.818 23.6638C210.489 23.7629 210.16 23.8634 209.828 23.9515C209.563 24.0218 208.683 24.2985 208.614 24.2572C207.718 25.0777 207.224 25.8527 207.224 25.8527C207.224 25.8527 208.509 26.4227 210.17 26.5108C210.174 26.4888 210.179 26.4667 210.183 26.4433C210.222 26.2203 214.052 25.3172 214.155 25.4865C215.777 24.454 216.709 22.9961 216.709 22.9961C216.709 22.9961 215.656 22.5294 214.221 22.3753Z" fill="white"/>
<path d="M211.417 22.5969C210.267 22.9424 209.319 23.6129 208.617 24.2558C208.703 24.973 209.045 25.6627 209.637 26.1707C209.79 26.3015 209.951 26.4144 210.12 26.5094C210.869 26.5535 211.696 26.5011 212.518 26.2533C213.113 26.0744 213.65 25.8073 214.13 25.503C214.743 24.5421 214.75 23.3293 214.188 22.3711C213.346 22.2857 212.378 22.3064 211.417 22.5969Z" fill="#363E44"/>
<path d="M195.446 22.634L195.481 22.6313C195.498 22.7029 195.547 22.7937 195.622 22.7924C195.713 22.8997 195.755 23.0732 195.815 23.1875C195.925 23.394 196.238 23.2109 196.128 23.0044C196.053 22.8653 196.545 23.131 196.761 23.2136C197.448 23.4779 198.144 23.7106 198.849 23.9226C199.178 24.0217 199.507 24.1222 199.839 24.2103C200.105 24.2806 200.985 24.5573 201.053 24.516C201.95 25.3365 202.444 26.1115 202.444 26.1115C202.444 26.1115 201.158 26.6815 199.498 26.771C199.494 26.7489 199.488 26.7269 199.484 26.7035C199.445 26.4805 195.615 25.5774 195.512 25.7467C193.891 24.7142 192.958 23.2563 192.958 23.2563C192.958 23.2563 194.013 22.7882 195.446 22.634Z" fill="white"/>
<path d="M198.252 22.8557C199.401 23.2012 200.35 23.8717 201.052 24.5146C200.965 25.2318 200.624 25.9215 200.032 26.4295C199.879 26.5603 199.718 26.6732 199.549 26.7682C198.8 26.8123 197.972 26.7599 197.151 26.5121C196.556 26.3332 196.019 26.0661 195.538 25.7619C194.926 24.8009 194.919 23.5881 195.481 22.6299C196.322 22.5445 197.29 22.5666 198.252 22.8557Z" fill="#363E44"/>
</g>
<path d="M195.167 186.047C207.6 173.614 207.6 153.456 195.167 141.023C182.734 128.59 162.576 128.59 150.143 141.023C137.71 153.456 137.71 173.614 150.143 186.047C162.576 198.481 182.734 198.481 195.167 186.047Z" fill="#D3BBA3"/>
<mask id="mask1_1041_6010" style="mask-type:luminance" maskUnits="userSpaceOnUse" x="144" y="119" width="58" height="73">
<path d="M201.067 163.536C201.067 179.226 188.348 191.946 172.657 191.946C156.965 191.946 144.246 179.227 144.246 163.536C144.246 147.846 156.965 119.496 172.657 119.496C196.527 119.496 201.067 138.131 201.067 163.536Z" fill="white"/>
</mask>
<g mask="url(#mask1_1041_6010)">
<path d="M206.718 196.956H134.418V164.478L171.219 162.397L206.718 164.478V196.956Z" fill="#576F69"/>
<path d="M180.757 145.895H163.123V169.523H180.757V145.895Z" fill="#E2A18D"/>
<path d="M171.7 172.768C179.422 172.768 185.681 170.257 185.681 167.159C185.681 164.062 179.422 161.551 171.7 161.551C163.978 161.551 157.718 164.062 157.718 167.159C157.718 170.257 163.978 172.768 171.7 172.768Z" fill="#E2A18D"/>
<path d="M162.831 138.955C164.201 141.004 163.898 143.61 162.155 144.776C160.412 145.942 157.887 145.226 156.518 143.178C155.148 141.129 155.451 138.523 157.194 137.357C158.937 136.191 161.46 136.907 162.831 138.955Z" fill="#E2A18D"/>
<path d="M180.969 138.908C179.61 140.964 179.925 143.568 181.675 144.725C183.425 145.881 185.944 145.153 187.304 143.098C188.663 141.042 188.348 138.438 186.598 137.281C184.848 136.123 182.328 136.853 180.969 138.908Z" fill="#E2A18D"/>
<path d="M172.348 159.934C159.154 159.934 160.587 139.176 160.587 139.176L183.382 139.093C183.381 139.093 185.918 159.934 172.348 159.934Z" fill="#B77250"/>
<path d="M173.377 133.905C173.759 129.432 170.443 125.496 165.97 125.114C161.497 124.732 157.561 128.049 157.179 132.521C156.797 136.994 160.114 140.93 164.586 141.312C169.059 141.694 172.995 138.377 173.377 133.905Z" fill="#B77250"/>
<path d="M182.932 141.128C182.95 148.24 178.529 144.286 172.476 144.302C166.423 144.317 161.032 148.297 161.014 141.185C160.996 134.074 165.792 130.244 171.845 130.228C177.897 130.212 182.914 134.016 182.932 141.128Z" fill="#E2A18D"/>
<path d="M182.764 144.876C182.741 144.876 182.719 144.874 182.695 144.868C182.531 144.83 182.431 144.667 182.468 144.503C182.721 143.413 182.848 142.28 182.845 141.139C182.843 140.12 182.737 139.108 182.53 138.129C182.496 137.965 182.6 137.804 182.764 137.77C182.928 137.735 183.089 137.84 183.123 138.004C183.338 139.024 183.45 140.077 183.452 141.137C183.455 142.325 183.323 143.505 183.06 144.641C183.027 144.781 182.902 144.876 182.764 144.876Z" fill="#B77250"/>
<path d="M161.186 144.853C161.048 144.853 160.923 144.758 160.892 144.619C160.631 143.502 160.498 142.345 160.494 141.176C160.491 140.095 160.6 139.02 160.819 137.981C160.853 137.817 161.013 137.711 161.178 137.745C161.342 137.78 161.446 137.941 161.412 138.104C161.203 139.103 161.098 140.135 161.101 141.173C161.104 142.295 161.232 143.407 161.482 144.48C161.521 144.644 161.419 144.806 161.255 144.845C161.233 144.85 161.21 144.853 161.186 144.853Z" fill="#B77250"/>
<path d="M172.57 144.883C172.474 144.883 172.38 144.838 172.321 144.752C172.224 144.615 172.259 144.426 172.397 144.33C172.592 144.193 172.827 143.987 172.843 143.768C172.851 143.643 172.788 143.538 172.666 143.351C172.534 143.147 172.37 142.895 172.313 142.524C172.26 142.19 172.306 141.843 172.447 141.492C172.511 141.337 172.687 141.263 172.843 141.324C172.998 141.388 173.074 141.564 173.011 141.72C172.91 141.967 172.877 142.207 172.913 142.429C172.951 142.672 173.06 142.842 173.177 143.021C173.315 143.234 173.472 143.476 173.45 143.809C173.425 144.177 173.188 144.52 172.745 144.828C172.69 144.865 172.629 144.883 172.57 144.883Z" fill="#363E44"/>
<path d="M170.864 147.946C170.421 147.946 169.657 147.855 168.934 147.338C168.526 147.046 168.186 146.654 167.95 146.202C167.871 146.053 167.929 145.87 168.078 145.792C168.226 145.713 168.409 145.771 168.488 145.92C168.681 146.287 168.957 146.607 169.288 146.844C169.921 147.298 170.594 147.347 170.941 147.338C171.106 147.334 171.248 147.464 171.254 147.632C171.259 147.8 171.127 147.939 170.959 147.945C170.929 147.945 170.897 147.946 170.864 147.946Z" fill="white"/>
<path d="M159.75 137.394C159.75 137.394 165.554 138.542 171.96 131.69C171.96 131.69 182.507 146.955 192.024 129.621C192.024 129.621 186.843 131.615 184.292 127.946C180.234 122.107 170.061 117.059 165.447 127.253L159.75 137.394Z" fill="#B77250"/>
<path d="M180.231 138.775L180.202 138.772C180.187 138.834 180.146 138.911 180.081 138.91C180.004 139.002 179.968 139.151 179.916 139.248C179.822 139.425 179.555 139.268 179.649 139.092C179.712 138.973 179.291 139.2 179.106 139.271C178.519 139.496 177.922 139.696 177.319 139.878C177.039 139.962 176.756 140.048 176.471 140.124C176.244 140.183 175.491 140.421 175.432 140.386C174.665 141.088 174.241 141.751 174.241 141.751C174.241 141.751 175.341 142.24 176.763 142.316C176.767 142.296 176.772 142.277 176.776 142.258C176.809 142.067 180.088 141.294 180.176 141.439C181.564 140.555 182.362 139.308 182.362 139.308C182.362 139.308 181.458 138.907 180.231 138.775Z" fill="white"/>
<path d="M177.83 138.965C176.846 139.261 176.034 139.835 175.434 140.384C175.508 140.998 175.801 141.589 176.306 142.024C176.437 142.135 176.575 142.232 176.719 142.313C177.361 142.352 178.069 142.306 178.772 142.094C179.281 141.941 179.741 141.711 180.153 141.453C180.677 140.631 180.683 139.593 180.202 138.772C179.481 138.698 178.654 138.717 177.83 138.965Z" fill="#363E44"/>
<path d="M164.158 138.997L164.187 138.994C164.203 139.056 164.244 139.133 164.309 139.132C164.386 139.224 164.421 139.372 164.474 139.47C164.567 139.646 164.834 139.489 164.741 139.313C164.677 139.195 165.099 139.422 165.283 139.492C165.871 139.718 166.467 139.918 167.07 140.099C167.351 140.183 167.633 140.27 167.918 140.346C168.145 140.405 168.898 140.643 168.958 140.607C169.724 141.309 170.148 141.973 170.148 141.973C170.148 141.973 169.048 142.462 167.626 142.537C167.622 142.518 167.618 142.499 167.614 142.48C167.581 142.288 164.302 141.516 164.214 141.66C162.826 140.777 162.027 139.529 162.027 139.529C162.027 139.529 162.932 139.129 164.158 138.997Z" fill="white"/>
<path d="M166.561 139.187C167.545 139.483 168.357 140.057 168.958 140.606C168.883 141.22 168.59 141.811 168.085 142.246C167.954 142.357 167.816 142.453 167.672 142.535C167.03 142.573 166.323 142.528 165.619 142.316C165.11 142.163 164.65 141.933 164.238 141.674C163.714 140.852 163.708 139.814 164.189 138.994C164.909 138.921 165.738 138.939 166.561 139.187Z" fill="#363E44"/>
</g>
<path d="M47.8697 244.925C65.6186 244.925 80.0069 230.537 80.0069 212.788C80.0069 195.039 65.6186 180.651 47.8697 180.651C30.1208 180.651 15.7324 195.039 15.7324 212.788C15.7324 230.537 30.1208 244.925 47.8697 244.925Z" fill="#EFBC73"/>
<path d="M48.2385 217.975L19.894 223.304C21.3464 227.174 23.6276 230.803 26.7416 233.917C38.4104 245.586 57.3301 245.586 68.9988 233.917C72.1969 230.719 74.5152 226.977 75.9607 222.989L48.2385 217.975Z" fill="#24947A"/>
<path d="M60.1511 211.044C63.7155 211.044 66.605 208.154 66.605 204.59C66.605 201.025 63.7155 198.136 60.1511 198.136C56.5868 198.136 53.6973 201.025 53.6973 204.59C53.6973 208.154 56.5868 211.044 60.1511 211.044Z" fill="#363E44"/>
<path d="M63.0754 218.172C66.5757 217.498 68.8667 214.114 68.1927 210.614C67.5187 207.113 64.1348 204.822 60.6346 205.496C57.1344 206.17 54.8433 209.554 55.5173 213.054C56.1913 216.555 59.5752 218.846 63.0754 218.172Z" fill="#363E44"/>
<path d="M45.6421 176.82C49.004 174.592 52.5063 174.876 54.7489 175.797C61.1202 178.418 64.8771 186.55 63.5156 196.648C53.492 196.836 43.4684 197.026 33.4448 197.215C32.0268 190.833 31.4059 184.225 34.7209 180.052C39.0038 174.662 44.9689 176.848 45.6421 176.82Z" fill="#363E44"/>
<path d="M46.9145 228.379C51.1147 228.658 54.7464 225.48 55.0259 221.279L56.3819 200.862L41.171 199.851L39.815 220.269C39.5355 224.468 42.7142 228.099 46.9145 228.379Z" fill="#84524D"/>
<path d="M35.1382 195.915C35.3117 204.198 41.1653 210.793 48.2139 210.646C55.2625 210.499 60.8367 203.665 60.6646 195.383C60.4912 187.101 54.6375 181.159 47.5889 181.305C40.5389 181.453 34.9648 187.633 35.1382 195.915Z" fill="#84524D"/>
<path d="M58.4882 192.836C56.9491 195.259 57.3731 198.285 59.434 199.595C61.4963 200.906 64.4162 200.003 65.9553 197.58C67.4945 195.157 67.0704 192.131 65.0095 190.82C62.9459 189.511 60.0273 190.414 58.4882 192.836Z" fill="#84524D"/>
<path d="M37.3643 193.278C39.0039 195.635 38.7066 198.676 36.7007 200.07C34.6949 201.465 31.7406 200.686 30.1009 198.329C28.4613 195.972 28.7587 192.931 30.7645 191.536C32.7703 190.142 35.7247 190.921 37.3643 193.278Z" fill="#84524D"/>
<path d="M47.9812 210.952C45.3462 210.952 42.8062 210.039 40.6214 208.306C40.4906 208.201 40.4686 208.011 40.5719 207.879C40.6765 207.748 40.8679 207.726 40.9986 207.829C43.1366 209.527 45.6353 210.394 48.2069 210.342C50.835 210.287 53.3296 209.28 55.418 207.43C55.5433 207.318 55.736 207.331 55.8461 207.456C55.9576 207.581 55.9453 207.773 55.82 207.884C53.6214 209.831 50.9933 210.89 48.2193 210.947C48.1409 210.952 48.061 210.952 47.9812 210.952Z" fill="#363E44"/>
<path d="M35.6793 200.208C35.5444 200.208 35.4205 200.117 35.3861 199.979C35.1424 199.032 34.9772 198.052 34.8946 197.064C34.8808 196.897 35.0047 196.75 35.1713 196.736C35.342 196.722 35.4852 196.846 35.499 197.013C35.5788 197.967 35.7385 198.915 35.9739 199.829C36.0152 199.992 35.9175 200.157 35.755 200.198C35.7302 200.205 35.7041 200.208 35.6793 200.208Z" fill="#363E44"/>
<path d="M60.3038 199.627C60.2832 199.627 60.2625 199.624 60.2419 199.62C60.0781 199.586 59.9721 199.425 60.0065 199.261C60.2295 198.195 60.3493 197.094 60.363 195.987C60.3658 195.82 60.5007 195.687 60.6659 195.687C60.6673 195.687 60.6687 195.687 60.67 195.687C60.838 195.69 60.9715 195.827 60.9702 195.994C60.955 197.138 60.8311 198.279 60.5998 199.383C60.5709 199.529 60.4443 199.627 60.3038 199.627Z" fill="#363E44"/>
<path d="M47.3546 200.71C47.2968 200.71 47.239 200.694 47.1881 200.659C46.6773 200.322 46.3992 199.942 46.362 199.529C46.3276 199.159 46.4915 198.892 46.6498 198.634C46.7833 198.418 46.9086 198.214 46.9485 197.918C46.9843 197.649 46.9389 197.362 46.8108 197.068C46.7448 196.913 46.815 196.735 46.9692 196.668C47.1234 196.602 47.3009 196.673 47.3684 196.827C47.5391 197.223 47.6011 197.617 47.5501 197.998C47.4937 198.422 47.3133 198.716 47.1674 198.952C47.0297 199.177 46.9513 199.312 46.9664 199.473C46.9871 199.692 47.1743 199.92 47.5226 200.151C47.663 200.244 47.7016 200.432 47.6079 200.573C47.5501 200.664 47.4524 200.71 47.3546 200.71Z" fill="#363E44"/>
<path d="M49.2917 203.478C49.2834 203.478 49.2752 203.478 49.2683 203.478C49.1003 203.476 48.9654 203.34 48.9668 203.172C48.9682 203.005 49.1031 202.87 49.2697 202.87C49.2766 202.87 49.2848 202.87 49.2917 202.87C49.7061 202.87 50.4894 202.786 51.2149 202.24C51.599 201.951 51.9184 201.564 52.1359 201.125C52.2103 200.975 52.392 200.913 52.542 200.987C52.6921 201.061 52.7541 201.243 52.6797 201.393C52.4195 201.918 52.0396 202.379 51.5797 202.724C50.7152 203.376 49.7846 203.478 49.2917 203.478Z" fill="#363E44"/>
<path d="M42.3422 200.233C41.0742 200.233 39.6452 199.931 38.2341 199.306C34.703 197.741 32.6008 194.729 33.5479 192.591C34.4951 190.454 38.1392 189.989 41.6703 191.554C45.2015 193.119 47.3037 196.132 46.3566 198.27C45.7894 199.551 44.2475 200.233 42.3422 200.233ZM37.521 191.218C35.8786 191.218 34.5749 191.774 34.1041 192.837C33.2919 194.668 35.2564 197.321 38.482 198.751C41.7075 200.18 44.9923 199.854 45.8031 198.023C46.6154 196.192 44.6509 193.539 41.4253 192.109C40.072 191.509 38.7077 191.218 37.521 191.218Z" fill="white"/>
<path d="M52.9109 199.905C51.0055 199.905 49.465 199.225 48.8951 197.941C47.9479 195.804 50.0501 192.79 53.5813 191.225C57.1125 189.66 60.7566 190.125 61.7037 192.262C62.6509 194.398 60.5487 197.412 57.0175 198.977C55.6078 199.605 54.1788 199.905 52.9109 199.905ZM49.4499 197.696C50.2621 199.526 53.5469 199.853 56.7711 198.424C59.9966 196.995 61.9612 194.341 61.1489 192.51C60.3367 190.679 57.0519 190.352 53.8277 191.781C50.6022 193.212 48.639 195.865 49.4499 197.696Z" fill="white"/>
<path d="M48.8195 197.127H46.2726C46.1046 197.127 45.9697 196.991 45.9697 196.824C45.9697 196.656 46.106 196.521 46.2726 196.521H48.8195C48.9874 196.521 49.1223 196.657 49.1223 196.824C49.1237 196.991 48.9874 197.127 48.8195 197.127Z" fill="white"/>
<path d="M64.7423 223.782C67.737 223.206 69.6973 220.311 69.1206 217.316C68.5439 214.321 65.6487 212.361 62.6539 212.938C59.6592 213.514 57.6989 216.409 58.2756 219.404C58.8523 222.399 61.7475 224.359 64.7423 223.782Z" fill="#363E44"/>
<path d="M69.9772 228.67C71.6868 226.145 71.0255 222.711 68.5001 221.002C65.9747 219.292 62.5415 219.954 60.8319 222.479C59.1223 225.004 59.7836 228.438 62.309 230.147C64.8344 231.857 68.2676 231.195 69.9772 228.67Z" fill="#363E44"/>
<path d="M69.9037 234.606C71.3618 232.583 70.9039 229.761 68.8809 228.303C66.8579 226.845 64.0359 227.303 62.5777 229.326C61.1196 231.349 61.5775 234.171 63.6005 235.629C65.6235 237.087 68.4455 236.629 69.9037 234.606Z" fill="#363E44"/>
<path d="M66.4492 231.141L57.8711 245.999H75.0287L66.4492 231.141Z" fill="#363E44"/>
<path d="M57.0455 193.315L57.0124 193.312C56.9945 193.381 56.9477 193.47 56.8748 193.468C56.7866 193.572 56.7467 193.74 56.6875 193.85C56.5815 194.05 56.2786 193.872 56.3847 193.674C56.4562 193.541 55.9799 193.797 55.772 193.878C55.1071 194.134 54.4325 194.36 53.7497 194.565C53.4317 194.661 53.1123 194.759 52.7915 194.843C52.5341 194.91 51.6819 195.179 51.6145 195.139C50.7472 195.933 50.2681 196.685 50.2681 196.685C50.2681 196.685 51.514 197.237 53.1219 197.321C53.1261 197.299 53.1316 197.278 53.1357 197.256C53.1729 197.04 56.883 196.163 56.9821 196.328C58.5516 195.328 59.4547 193.915 59.4547 193.915C59.4547 193.915 58.4345 193.462 57.0455 193.315Z" fill="white"/>
<path d="M54.3292 193.53C53.2155 193.866 52.2973 194.515 51.6172 195.138C51.7025 195.833 52.0329 196.501 52.6056 196.992C52.7529 197.119 52.9099 197.227 53.0737 197.32C53.7992 197.362 54.6005 197.311 55.3962 197.07C55.9716 196.897 56.492 196.638 56.9573 196.344C57.5507 195.413 57.5562 194.239 57.011 193.311C56.1974 193.228 55.2599 193.249 54.3292 193.53Z" fill="#363E44"/>
<path d="M38.8593 193.575L38.8923 193.572C38.9102 193.641 38.957 193.731 39.03 193.728C39.1181 193.832 39.158 194 39.2172 194.111C39.3232 194.31 39.6261 194.133 39.5201 193.933C39.4485 193.799 39.9248 194.055 40.1327 194.135C40.7977 194.391 41.4722 194.616 42.1551 194.821C42.4731 194.916 42.7925 195.014 43.1146 195.099C43.3721 195.166 44.2242 195.435 44.2917 195.395C45.1604 196.189 45.6395 196.94 45.6395 196.94C45.6395 196.94 44.3949 197.493 42.7856 197.58C42.7815 197.558 42.776 197.537 42.7718 197.515C42.7347 197.299 39.0245 196.426 38.924 196.59C37.3532 195.59 36.4487 194.179 36.4487 194.179C36.4487 194.179 37.4716 193.725 38.8593 193.575Z" fill="white"/>
<path d="M41.577 193.788C42.6908 194.123 43.6104 194.771 44.2905 195.394C44.2065 196.089 43.8761 196.757 43.3034 197.249C43.1561 197.376 42.9991 197.485 42.8367 197.577C42.1112 197.62 41.31 197.57 40.5129 197.331C39.9374 197.157 39.4156 196.898 38.9503 196.605C38.357 195.674 38.3487 194.5 38.8925 193.572C39.7075 193.487 40.645 193.508 41.577 193.788Z" fill="#363E44"/>
<path d="M226.399 242.311C215.156 242.311 206.009 233.164 206.009 221.921C206.009 210.678 215.156 201.531 226.399 201.531C237.643 201.531 246.789 210.678 246.789 221.921C246.788 233.164 237.641 242.311 226.399 242.311ZM226.399 202.138C215.49 202.138 206.616 211.012 206.616 221.921C206.616 232.83 215.49 241.704 226.399 241.704C237.308 241.704 246.182 232.83 246.182 221.921C246.181 211.013 237.307 202.138 226.399 202.138Z" fill="#E6D0BE"/>
<mask id="mask2_1041_6010" style="mask-type:luminance" maskUnits="userSpaceOnUse" x="208" y="190" width="38" height="50">
<path d="M244.322 221.921C244.322 231.821 236.298 239.845 226.398 239.845C216.498 239.845 208.474 231.821 208.474 221.921C208.474 215.062 207.192 200.658 212.85 194.971C215.36 192.449 223.707 190.516 226.748 190.516C233.638 190.516 237.595 192.874 240.425 194.981C247.816 200.479 244.322 214.764 244.322 221.921Z" fill="white"/>
</mask>
<g mask="url(#mask2_1041_6010)">
<path d="M247.888 243.006H202.273V225.828L225.492 221.204L247.888 225.828V243.006Z" fill="#E6D0BE"/>
<path d="M220.488 207.504C223.083 207.504 225.188 205.4 225.188 202.804C225.188 200.209 223.083 198.104 220.488 198.104C217.892 198.104 215.788 200.209 215.788 202.804C215.788 205.4 217.892 207.504 220.488 207.504Z" fill="white"/>
<path d="M222.766 202.994C225.362 202.994 227.466 200.89 227.466 198.294C227.466 195.699 225.362 193.594 222.766 193.594C220.17 193.594 218.066 195.699 218.066 198.294C218.066 200.89 220.17 202.994 222.766 202.994Z" fill="white"/>
<path d="M229.027 201.835C231.862 201.835 234.161 199.537 234.161 196.701C234.161 193.866 231.862 191.568 229.027 191.568C226.192 191.568 223.894 193.866 223.894 196.701C223.894 199.537 226.192 201.835 229.027 201.835Z" fill="white"/>
<path d="M231.819 206.536C234.223 206.536 236.172 204.588 236.172 202.183C236.172 199.779 234.223 197.83 231.819 197.83C229.415 197.83 227.466 199.779 227.466 202.183C227.466 204.588 229.415 206.536 231.819 206.536Z" fill="white"/>
<path d="M230.275 210.792H221.617V225.698H230.275V210.792Z" fill="#D3BBA3"/>
<path d="M225.795 227.799C229.907 227.799 233.24 226.462 233.24 224.812C233.24 223.162 229.907 221.825 225.795 221.825C221.683 221.825 218.35 223.162 218.35 224.812C218.35 226.462 221.683 227.799 225.795 227.799Z" fill="#D3BBA3"/>
<path d="M232.914 207.563C233.006 203.12 230.017 199.455 226.237 199.376C222.457 199.297 219.317 202.834 219.224 207.277C219.131 211.719 222.12 215.384 225.901 215.463C229.681 215.542 232.821 212.005 232.914 207.563Z" fill="#D3BBA3"/>
<path d="M220.38 205.909C221.206 207.208 220.979 208.831 219.872 209.534C218.767 210.236 217.2 209.752 216.375 208.453C215.549 207.153 215.776 205.53 216.883 204.828C217.989 204.126 219.554 204.609 220.38 205.909Z" fill="#D3BBA3"/>
<path d="M235.593 208.86C236.472 207.596 236.313 205.965 235.237 205.217C234.162 204.469 232.577 204.887 231.698 206.151C230.819 207.415 230.978 209.046 232.054 209.794C233.129 210.542 234.714 210.123 235.593 208.86Z" fill="#D3BBA3"/>
<path d="M226.09 203.022C229.659 203.022 232.553 201.478 232.553 199.575C232.553 197.671 229.659 196.127 226.09 196.127C222.52 196.127 219.626 197.671 219.626 199.575C219.626 201.478 222.52 203.022 226.09 203.022Z" fill="white"/>
</g>
<path d="M130.921 249.237C118.271 249.237 107.98 238.945 107.98 226.296C107.98 213.646 118.272 203.355 130.921 203.355C143.571 203.355 153.862 213.647 153.862 226.296C153.863 238.945 143.571 249.237 130.921 249.237ZM130.921 203.961C118.605 203.961 108.586 213.98 108.586 226.295C108.586 238.61 118.605 248.628 130.921 248.628C143.237 248.628 153.255 238.609 153.255 226.295C153.256 213.979 143.237 203.961 130.921 203.961Z" fill="#E6D0BE"/>
<mask id="mask3_1041_6010" style="mask-type:luminance" maskUnits="userSpaceOnUse" x="110" y="194" width="43" height="53">
<path d="M151.123 226.295C151.123 237.451 142.078 246.496 130.921 246.496C119.765 246.496 110.72 237.451 110.72 226.295C110.72 215.138 119.765 195.88 130.921 195.88C138.687 195.88 143.541 193.559 146.731 195.932C155.06 202.128 151.123 218.229 151.123 226.295Z" fill="white"/>
</mask>
<g mask="url(#mask3_1041_6010)">
<path d="M155.141 252H103.732V232.64L129.9 227.428L155.141 232.64V252Z" fill="#E6D0BE"/>
<path d="M135.291 218.12H125.533V232.494H135.291V218.12Z" fill="white"/>
<path d="M130.241 234.86C134.876 234.86 138.634 233.353 138.634 231.494C138.634 229.635 134.876 228.128 130.241 228.128C125.606 228.128 121.849 229.635 121.849 231.494C121.849 233.353 125.606 234.86 130.241 234.86Z" fill="white"/>
<path d="M138.262 214.485C138.367 209.478 134.998 205.347 130.737 205.258C126.476 205.169 122.937 209.156 122.833 214.162C122.728 219.168 126.097 223.299 130.358 223.388C134.619 223.477 138.157 219.491 138.262 214.485Z" fill="white"/>
<path d="M124.138 212.616C125.069 214.081 124.813 215.91 123.566 216.702C122.32 217.493 120.555 216.948 119.624 215.484C118.694 214.019 118.95 212.189 120.197 211.398C121.443 210.607 123.208 211.153 124.138 212.616Z" fill="white"/>
<path d="M141.286 215.938C142.276 214.514 142.097 212.676 140.885 211.833C139.673 210.99 137.887 211.461 136.896 212.885C135.906 214.31 136.085 216.148 137.297 216.991C138.509 217.834 140.295 217.363 141.286 215.938Z" fill="white"/>
<path d="M123.157 211.74C124.446 209.679 126.442 207.284 129.207 206.919C132.824 206.443 134.855 209.777 138.58 209.521C145.712 209.031 142.377 205.32 141.505 205.391C142.399 204.206 143.043 198.029 138.512 201.023C133.912 204.063 131.508 201.73 128.34 202.501C126.25 203.008 122.816 205.28 123.157 211.74Z" fill="#D3BBA3"/>
<path d="M135.577 208.602C136.109 209.067 136.765 209.75 137.335 210.697C137.62 211.17 137.832 211.623 137.99 212.029C138.118 211.493 138.269 210.552 138.052 209.418C137.879 208.509 137.536 207.818 137.275 207.383C136.709 207.789 136.143 208.195 135.577 208.602Z" fill="#D3BBA3"/>
</g>
<path d="M229.382 149.465C218.57 149.465 209.774 140.669 209.774 129.857C209.774 119.044 218.57 110.249 229.382 110.249C240.195 110.249 248.991 119.044 248.991 129.857C248.991 140.669 240.194 149.465 229.382 149.465ZM229.382 110.854C218.905 110.854 210.382 119.379 210.382 129.855C210.382 140.332 218.906 148.856 229.382 148.856C239.859 148.856 248.383 140.332 248.383 129.855C248.383 119.379 239.859 110.854 229.382 110.854Z" fill="#E6D0BE"/>
<mask id="mask4_1041_6010" style="mask-type:luminance" maskUnits="userSpaceOnUse" x="212" y="97" width="36" height="51">
<path d="M246.609 129.857C246.609 139.371 238.897 147.083 229.383 147.083C219.868 147.083 212.156 139.371 212.156 129.857C212.156 120.342 219.868 97.8971 229.383 97.8971C236.004 97.8971 240.144 101.942 242.864 103.966C249.967 109.248 246.609 122.977 246.609 129.857Z" fill="white"/>
</mask>
<g mask="url(#mask4_1041_6010)">
<path d="M250.036 150.12H206.195V133.611L228.51 129.166L250.036 133.611V150.12Z" fill="white"/>
<path d="M233.108 119.159H224.786V133.486H233.108V119.159Z" fill="#E6D0BE"/>
<path d="M228.802 135.504C232.754 135.504 235.958 134.219 235.958 132.633C235.958 131.048 232.754 129.763 228.802 129.763C224.85 129.763 221.646 131.048 221.646 132.633C221.646 134.219 224.85 135.504 228.802 135.504Z" fill="#E6D0BE"/>
<path d="M235.643 116.053C235.732 111.784 232.859 108.261 229.225 108.186C225.592 108.11 222.574 111.509 222.484 115.778C222.395 120.047 225.268 123.569 228.902 123.645C232.536 123.721 235.554 120.322 235.643 116.053Z" fill="#E6D0BE"/>
<path d="M223.598 114.467C224.391 115.715 224.173 117.275 223.111 117.951C222.048 118.627 220.543 118.162 219.749 116.913C218.956 115.665 219.173 114.105 220.236 113.429C221.3 112.753 222.805 113.218 223.598 114.467Z" fill="#E6D0BE"/>
<path d="M238.221 117.303C239.066 116.089 238.913 114.521 237.88 113.803C236.846 113.084 235.323 113.485 234.478 114.7C233.634 115.915 233.787 117.482 234.82 118.201C235.854 118.92 237.377 118.518 238.221 117.303Z" fill="#E6D0BE"/>
<path d="M222.761 113.719C223.86 111.961 225.563 109.918 227.921 109.609C231.005 109.202 232.739 112.084 235.912 111.828C237.461 111.702 239.069 105.524 236.895 105.69C232.208 106.05 229.881 105.184 227.18 105.841C225.399 106.273 222.469 108.21 222.761 113.719Z" fill="white"/>
<path d="M233.352 111.042C233.804 111.438 234.365 112.02 234.851 112.829C235.094 113.232 235.275 113.619 235.41 113.964C235.52 113.506 235.648 112.705 235.463 111.737C235.316 110.962 235.023 110.373 234.8 110.002C234.318 110.349 233.835 110.696 233.352 111.042Z" fill="white"/>
<path d="M230.096 108.173C232.508 107.782 234.146 105.509 233.755 103.097C233.364 100.685 231.091 99.0465 228.679 99.438C226.266 99.8294 224.628 102.102 225.02 104.514C225.411 106.927 227.684 108.565 230.096 108.173Z" fill="white"/>
</g>
<path d="M143.113 91.424C143.113 109.008 135.986 124.926 124.464 136.444C115.379 145.529 103.556 151.882 90.3445 154.162C86.8023 154.775 83.1596 155.094 79.4412 155.094H75.541C57.3413 155.094 40.923 147.458 29.319 135.212C18.5038 123.802 11.8682 108.389 11.8682 91.424C11.8682 73.8397 18.9952 57.9225 30.5167 46.401C42.0381 34.8796 57.9567 27.7525 75.5396 27.7525H79.4398C114.606 27.7525 143.113 56.2567 143.113 91.424Z" fill="white"/>
<path d="M19.9481 86.6042C15.6019 97.4167 0.875549 127.66 15.6046 134.92C27.7883 140.927 40.6299 110.715 45.7415 100.33C37.1442 95.7537 28.5468 91.179 19.9481 86.6042Z" fill="#E2A18D"/>
<path d="M78.5479 99.9043C89.8036 102.922 125.955 118.843 131.397 103.349C135.899 90.5319 101.454 80.1393 90.5305 76.3094C87.0186 85.3941 82.0584 90.8196 78.5479 99.9043Z" fill="#E2A18D"/>
<path d="M130.103 105.575C135.476 100.28 126.159 83.0193 125.106 81.4596C117.863 70.7352 102.719 52.932 97.1013 56.6903C91.8052 60.2325 93.2947 74.7001 105.631 90.408C116.606 104.383 125.663 109.95 130.103 105.575Z" fill="#E2A18D"/>
<path d="M115.28 71.4993C113.239 73.3922 109.88 73.0894 107.776 70.822L90.9766 52.2753L98.1546 45.6191L115.17 63.9661C117.273 66.2335 117.322 69.6064 115.28 71.4993Z" fill="#84524D"/>
<path d="M138.629 28.8409C142.977 26.5691 144.725 21.3286 142.534 17.1357C140.344 12.9429 135.043 11.3856 130.695 13.6573C126.347 15.9291 124.599 21.1697 126.79 25.3625C128.98 29.5554 134.281 31.1127 138.629 28.8409Z" fill="#EFBC73"/>
<path d="M93.0542 34.0481L100.392 48.0902L143.772 38.682L125.551 3.80927L93.0542 34.0481Z" fill="#D87355"/>
<path d="M93.0634 34.068L83.7012 38.9598L91.0189 52.9647L100.381 48.0729L93.0634 34.068Z" fill="#EFBC73"/>
<path d="M96.5483 44.4428L89.8887 47.9225L91.1778 50.3896L97.8374 46.9099L96.5483 44.4428Z" fill="#E0AA63"/>
<path d="M94.5561 40.6312L87.8965 44.1109L89.1856 46.578L95.8452 43.0984L94.5561 40.6312Z" fill="#E0AA63"/>
<path d="M92.5653 36.82L85.9058 40.2997L87.1949 42.7669L93.8545 39.2872L92.5653 36.82Z" fill="#E0AA63"/>
<path d="M107.082 49.7738C106.249 48.9547 104.522 49.4159 103.05 50.2405C100.655 51.5842 99.187 54.3788 100.414 55.7239C101.273 56.6655 104.043 56.108 106.146 53.8612C107.521 52.3923 107.928 50.604 107.082 49.7738Z" fill="#E2A18D"/>
<path d="M115.072 58.8848C114.083 58.2639 112.334 58.9288 111.236 60.2077C109.56 62.1571 108.353 65.0798 109.84 66.1302C110.882 66.8654 113.467 65.7241 115.038 63.0795C116.065 61.3476 116.077 59.5139 115.072 58.8848Z" fill="#E2A18D"/>
<path d="M110.023 52.9443C109.103 52.077 107.06 52.3661 105.572 53.4386C103.303 55.0727 101.307 57.8178 102.662 59.2399C103.61 60.2366 106.669 59.646 108.99 57.2699C110.507 55.7156 110.956 53.8226 110.023 52.9443Z" fill="#E2A18D"/>
<path d="M112.778 55.7652C111.76 55.0135 109.768 55.5449 108.418 56.7867C106.36 58.6796 104.706 61.6436 106.219 62.8936C107.279 63.7692 110.246 62.8179 112.267 60.1829C113.59 58.4593 113.809 56.5279 112.778 55.7652Z" fill="#E2A18D"/>
<path d="M96.8373 72.0431C95.2844 70.5122 94.4419 67.657 94.2547 66.0201C93.6668 60.8851 96.1407 55.3247 98.0461 55.3811C99.0689 55.4114 100.468 56.3599 100.528 58.1937C100.605 60.5258 99.7655 61.5596 99.8798 63.3301C100.03 65.6484 102.743 66.3849 103.304 68.9249C104.313 73.4968 98.9629 74.137 96.8373 72.0431Z" fill="#E2A18D"/>
<path d="M103.43 77.1849L100.256 109.827C100.256 109.827 97.7665 109.215 91.8385 105.432L90.3448 154.161C86.8027 154.773 83.1599 155.093 79.4415 155.093H75.5414C57.3417 155.093 40.9234 147.456 29.3194 135.211L32.3907 109.213L12.2334 89.3452C12.2334 89.3452 30.5515 72.8484 55.0468 70.548C80.5346 68.1553 103.43 77.1849 103.43 77.1849Z" fill="#134F41"/>
<path d="M20.2635 110.685C20.2635 110.684 20.2649 110.684 20.2635 110.685C44.1503 106.554 61.016 103.164 66.2639 102.323C66.8132 102.235 67.7824 102.075 69.0517 102.217C73.7545 102.74 75.0362 106.561 79.7306 109.368C85.0556 112.552 89.8575 111.331 90.1122 112.895C90.2884 113.982 88.6075 114.953 84.7363 115.524C87.7278 115.429 91.7904 115.477 91.8372 117.131C91.7904 119.043 87.0105 119.547 84.1043 119.709C87.6218 119.511 89.5519 120.458 89.3495 121.387C89.0301 122.849 86.3373 123.637 81.6786 123.718C84.9111 124.561 85.5705 125.248 85.1906 126.024C84.4967 127.442 80.6654 127.437 77.2788 126.913C73.4654 126.323 70.7134 124.543 69.0049 123.38H69.0035C52.5756 128.007 32.9648 133.311 19.8409 135.642C17.0627 136.133 20.3778 119.713 20.2635 110.685Z" fill="#E2A18D"/>
<path d="M20.5362 110.94C20.3917 110.94 20.2623 110.835 20.2375 110.688C20.2086 110.523 20.3201 110.366 20.4853 110.337C25.7552 109.424 30.9976 108.495 36.5098 107.495C36.675 107.465 36.8333 107.575 36.8623 107.74C36.8925 107.906 36.7824 108.064 36.6172 108.093C31.1036 109.094 25.8598 110.023 20.5885 110.936C20.5706 110.938 20.5527 110.94 20.5362 110.94Z" fill="#363E44"/>
<path d="M74.8257 107.795C80.7964 106.365 82.6467 104.584 82.3892 103.645C81.9569 102.066 76.3594 101.201 67.3696 102.192C69.308 103.941 72.8887 106.048 74.8257 107.795Z" fill="#E2A18D"/>
<path d="M76.7048 107.702C76.6332 107.702 76.563 107.677 76.5052 107.626C75.9463 107.136 75.4369 106.647 74.9441 106.176C73.9171 105.194 72.9479 104.266 71.819 103.612C71.6744 103.528 71.6249 103.342 71.7089 103.197C71.7928 103.053 71.9787 103.003 72.1232 103.087C73.3155 103.777 74.3108 104.73 75.364 105.739C75.8513 106.205 76.3565 106.689 76.9058 107.17C77.0325 107.281 77.0449 107.473 76.9334 107.599C76.8742 107.666 76.7902 107.702 76.7048 107.702Z" fill="#363E44"/>
<path d="M84.6304 115.682C84.6248 115.682 84.6207 115.682 84.6152 115.682C83.5015 115.63 82.4029 115.431 81.3483 115.088C80.6228 114.852 79.9125 114.547 79.2393 114.181C79.092 114.101 79.0369 113.916 79.1181 113.769C79.198 113.622 79.3825 113.568 79.5298 113.648C80.1699 113.996 80.8445 114.287 81.5356 114.511C82.5378 114.836 83.5841 115.027 84.6427 115.077C84.8107 115.085 84.9401 115.227 84.9318 115.395C84.925 115.556 84.7914 115.682 84.6304 115.682Z" fill="#363E44"/>
<path d="M84.4526 119.826C84.4471 119.826 84.443 119.826 84.4374 119.826C83.3237 119.774 82.2251 119.574 81.172 119.232C80.4451 118.996 79.7361 118.691 79.0629 118.324C78.9156 118.244 78.8619 118.06 78.9417 117.913C79.0216 117.765 79.2061 117.71 79.3534 117.792C79.9935 118.14 80.6681 118.43 81.3592 118.655C82.3614 118.98 83.4077 119.171 84.4664 119.221C84.6343 119.229 84.7637 119.371 84.7555 119.539C84.7486 119.7 84.6137 119.826 84.4526 119.826Z" fill="#363E44"/>
<path d="M81.5932 123.984C81.5877 123.984 81.5836 123.984 81.5781 123.984C80.4644 123.932 79.3658 123.732 78.3112 123.389C77.5857 123.154 76.8754 122.848 76.2022 122.482C76.0549 122.402 75.9998 122.218 76.081 122.07C76.1622 121.923 76.3453 121.868 76.4926 121.949C77.1328 122.297 77.8074 122.588 78.4985 122.812C79.5007 123.137 80.547 123.329 81.6056 123.378C81.7736 123.386 81.903 123.528 81.8947 123.696C81.8892 123.857 81.7543 123.984 81.5932 123.984Z" fill="#363E44"/>
<path d="M56.473 80.5744C52.8372 79.5818 50.6937 75.8303 51.6849 72.1931L55.4597 58.3602C56.4523 54.7244 60.2038 52.5809 63.841 53.5721C67.4768 54.5647 69.6203 58.3162 68.629 61.952L64.8528 75.7863C63.8602 79.4234 60.1088 81.5669 56.473 80.5744Z" fill="#E2A18D"/>
<path d="M54.1381 44.3773C54.5979 44.0854 59.0391 41.3637 63.4321 43.1204C66.7017 44.4282 68.4804 47.3275 70.7299 52.6429C73.3786 58.9026 74.0876 63.0148 72.9491 65.0894C71.1511 68.3687 60.7682 68.3178 54.9958 64.6021C50.8286 61.9203 48.5997 56.8789 49.0582 51.9091C49.5152 46.9558 53.8449 44.5631 54.1381 44.3773Z" fill="#E2A18D"/>
<path d="M69.1963 46.9118C69.2114 46.9544 69.2527 46.9751 69.2679 47.0178C69.2679 47.0192 69.2679 47.0205 69.2693 47.0233C69.6561 47.5285 70.065 48.0599 70.5358 48.4853C70.7451 48.6739 70.9681 48.729 71.1842 48.8832C71.3439 48.9974 71.4953 49.1062 71.6564 49.2122C72.3255 47.2146 71.9772 45.2529 71.9772 45.2529C71.9772 45.2529 70.5124 45.7595 69.1963 46.9118Z" fill="white"/>
<path d="M71.1072 50.4278C71.3385 50.0368 71.5161 49.6307 71.6523 49.2273C71.5973 49.0621 71.534 48.8969 71.4527 48.7372C70.9778 47.797 70.138 47.1637 69.1936 46.9159C68.7035 47.3495 68.2299 47.8754 67.8582 48.5046C66.6054 50.6205 66.9097 53.1674 66.9758 53.6121C67.0074 53.6245 67.0405 53.6368 67.0735 53.6492C67.5457 53.4703 69.8723 52.5121 71.1072 50.4278Z" fill="#363E44"/>
<path d="M60.5001 56.0722C60.8277 56.7481 61.1994 57.1983 61.8313 57.5425C63.3774 56.6408 64.3135 55.3811 64.3135 55.3811C64.3135 55.3811 62.2264 54.2977 59.9067 54.4931C59.9659 55.0438 60.2674 55.5931 60.5001 56.0722Z" fill="white"/>
<path d="M59.9011 54.4945C59.6436 54.5179 59.3821 54.5578 59.1205 54.617C56.4814 55.2118 54.7578 57.5356 54.7578 57.5356C54.7578 57.5356 57.3116 58.8958 59.9507 58.301C60.6321 58.1468 61.2516 57.877 61.7982 57.5617C61.7747 56.2897 61.063 55.1002 59.9011 54.4945Z" fill="#363E44"/>
<path d="M46.814 47.4845C45.2652 48.1177 43.2126 50.7954 43.3792 53.7084C43.7357 59.8856 46.7603 63.2681 53.8116 65.0867C52.9815 63.0382 53.3945 59.6364 53.6492 57.8261C53.9672 55.5711 53.4675 53.7676 52.0275 52.1776C58.5901 49.5426 60.6978 48.2623 60.5436 47.7226C60.3812 47.1582 57.7352 47.1981 57.7352 47.1981C57.7352 47.1981 63.5709 46.6901 63.6384 45.8586C63.659 45.5998 63.4071 44.939 60.6868 44.2603C66.2885 44.939 66.6203 44.5246 66.7056 44.2328C66.9589 43.3723 64.379 40.4042 60.5629 38.8885C58.4098 38.0322 55.4747 38.1478 52.7461 39.4006C47.8919 41.6295 46.5978 45.8738 46.814 47.4845Z" fill="#84524D"/>
<path d="M55.4268 59.2028C57.1491 60.5423 57.6268 62.8069 56.4951 64.2621C55.3635 65.7172 53.0507 65.8108 51.3285 64.4727C49.6062 63.1332 49.1285 60.8686 50.2602 59.4134C51.3918 57.9583 53.7046 57.8633 55.4268 59.2028Z" fill="#E2A18D"/>
<path d="M52.6762 63.7004C52.628 63.7004 52.5798 63.6894 52.5344 63.6646C52.4009 63.593 52.2715 63.509 52.1503 63.4154C51.6712 63.0423 51.3422 62.5316 51.2238 61.9754C51.1027 61.4013 51.2197 60.8479 51.5542 60.4184C51.7235 60.1995 51.9383 60.0274 52.193 59.9063C52.3444 59.8347 52.5248 59.898 52.5977 60.0494C52.6707 60.2009 52.606 60.3812 52.4546 60.4542C52.2866 60.534 52.1448 60.6483 52.0333 60.7915C51.8103 61.0778 51.7346 61.4536 51.8185 61.8501C51.9066 62.2659 52.1558 62.6514 52.5234 62.9363C52.617 63.0093 52.7175 63.074 52.8208 63.1291C52.9681 63.2075 53.0245 63.392 52.946 63.5393C52.8896 63.6426 52.785 63.7004 52.6762 63.7004Z" fill="#363E44"/>
<path d="M69.013 56.9643C69.0006 56.9643 68.9882 56.9643 68.9758 56.9616C68.8093 56.9409 68.6909 56.7908 68.7101 56.6243C68.7459 56.3228 68.7032 56.0901 68.5821 55.9332C68.4665 55.7817 68.304 55.7308 68.0011 55.6468C67.7699 55.5835 67.4835 55.5036 67.1655 55.3329C66.7608 55.1154 66.4014 54.8002 66.0986 54.3982C65.9981 54.2646 66.0242 54.0733 66.1591 53.9728C66.2941 53.8723 66.484 53.8984 66.5845 54.0334C66.8337 54.3651 67.127 54.6226 67.4532 54.7988C67.7107 54.9378 67.9406 55.0012 68.1636 55.0631C68.5009 55.1567 68.8203 55.2448 69.0639 55.5656C69.2842 55.8533 69.3668 56.2347 69.3117 56.6986C69.2952 56.85 69.1644 56.9643 69.013 56.9643Z" fill="#363E44"/>
<path d="M65.3236 67.7658C60.8108 67.7658 58.2171 66.3781 58.0946 66.312C57.9473 66.2321 57.8936 66.0477 57.9735 65.9004C58.0533 65.753 58.2378 65.6994 58.3851 65.7792C58.4168 65.7971 61.6699 67.5262 67.1201 67.0857C67.2881 67.0719 67.434 67.1972 67.4464 67.3638C67.4602 67.5303 67.3349 67.6776 67.1683 67.6914C66.5227 67.7424 65.9073 67.7658 65.3236 67.7658Z" fill="#363E44"/>
<path d="M68.6237 61.1962C68.4103 62.1241 67.4852 62.7023 66.5587 62.4889C65.6308 62.2755 65.0526 61.3504 65.266 60.4239C65.4794 59.496 66.0176 60.5973 66.9455 60.8107C67.872 61.0241 68.8371 60.2697 68.6237 61.1962Z" fill="#363E44"/>
<path d="M52.3609 51.9862C54.3997 45.2818 59.5637 42.4637 60.9692 41.4711C60.7848 39.0165 59.7192 37.878 59.3007 37.4911C56.9094 35.2788 51.6519 35.4344 47.2823 39.0372C47.6912 38.8885 49.9076 38.7095 50.439 39.1129C48.2033 39.1308 46.8101 40.0779 46.0997 40.5488C42.8452 42.7074 41.4727 47.3826 42.8397 52.4997C42.8329 52.1597 43.0311 50.5944 43.7139 49.7656C43.5267 50.5779 43.4028 51.5126 43.4303 52.5451C43.5515 57.0359 46.4439 60.1637 47.526 61.2251C47.6141 60.004 48.0298 55.0989 52.3609 51.9862Z" fill="#84524D"/>
<path d="M49.8814 47.1293C49.7796 47.1293 49.6791 47.0784 49.6226 46.9847C49.5345 46.8416 49.5799 46.6543 49.7231 46.5676C50.6124 46.0238 51.55 45.5489 52.5109 45.1579C53.4911 44.7586 54.5112 44.4393 55.5492 44.2066C54.9958 43.8776 54.2551 43.5719 53.3383 43.4893C52.1667 43.3833 51.2141 43.6945 50.6221 43.9739C50.4707 44.0455 50.2903 43.9808 50.2173 43.8294C50.1458 43.678 50.2105 43.4962 50.3619 43.4246C51.0213 43.1135 52.0827 42.7666 53.392 42.8836C54.821 43.0116 55.8686 43.6284 56.495 44.1212C56.5886 44.1956 56.6299 44.3167 56.6024 44.4324C56.5735 44.548 56.4799 44.6361 56.3628 44.6582C55.1225 44.8881 53.9027 45.246 52.7394 45.7196C51.8088 46.0982 50.9002 46.558 50.0397 47.0852C49.9902 47.1155 49.9351 47.1293 49.8814 47.1293Z" fill="#363E44"/>
<path d="M143.113 70.4475C142.979 70.4475 142.858 70.3593 142.821 70.2244C142.775 70.0634 142.87 69.8954 143.032 69.8513L146.541 68.8767C146.702 68.8326 146.87 68.9262 146.914 69.0873C146.959 69.2484 146.864 69.4163 146.703 69.4604L143.194 70.4351C143.168 70.4433 143.14 70.4475 143.113 70.4475ZM150.132 68.4981C149.999 68.4981 149.878 68.41 149.841 68.275C149.795 68.114 149.89 67.946 150.051 67.902L153.56 66.9273C153.723 66.8832 153.889 66.9768 153.934 67.1379C153.979 67.299 153.884 67.4669 153.723 67.511L150.214 68.4857C150.186 68.4939 150.159 68.4981 150.132 68.4981ZM157.151 66.5487C157.017 66.5487 156.896 66.4606 156.859 66.3257C156.814 66.1646 156.909 65.9966 157.07 65.9526L160.579 64.9779C160.741 64.9338 160.908 65.0275 160.952 65.1885C160.997 65.3496 160.902 65.5176 160.741 65.5616L157.232 66.5363C157.206 66.5446 157.178 66.5487 157.151 66.5487ZM164.171 64.5993C164.037 64.5993 163.916 64.5112 163.879 64.3763C163.833 64.2152 163.928 64.0473 164.089 64.0032L167.598 63.0285C167.76 62.9845 167.927 63.0781 167.972 63.2392C168.017 63.4002 167.922 63.5682 167.761 63.6122L164.252 64.5869C164.224 64.5952 164.197 64.5993 164.171 64.5993Z" fill="#D87355"/>
<path d="M147.2 139.478C147.121 139.478 147.039 139.447 146.98 139.383L144.472 136.742C144.356 136.62 144.362 136.428 144.483 136.312C144.604 136.196 144.797 136.202 144.912 136.323L147.421 138.965C147.536 139.086 147.531 139.279 147.41 139.394C147.35 139.451 147.275 139.478 147.2 139.478ZM142.185 134.195C142.105 134.195 142.024 134.163 141.965 134.1L139.457 131.458C139.341 131.337 139.346 131.144 139.468 131.028C139.589 130.913 139.781 130.918 139.897 131.039L142.405 133.681C142.521 133.802 142.516 133.995 142.394 134.111C142.335 134.167 142.259 134.195 142.185 134.195ZM137.17 128.911C137.09 128.911 137.009 128.879 136.95 128.816L134.441 126.174C134.326 126.053 134.331 125.86 134.452 125.745C134.573 125.629 134.766 125.635 134.882 125.756L137.39 128.398C137.506 128.519 137.5 128.711 137.379 128.827C137.32 128.883 137.244 128.911 137.17 128.911Z" fill="#D87355"/>
<path d="M65.4006 181.606C65.3854 181.606 65.3703 181.605 65.3538 181.602C65.1886 181.577 65.0743 181.422 65.0991 181.256L65.4322 179.073C65.457 178.908 65.6126 178.794 65.7778 178.818C65.943 178.843 66.0572 178.999 66.0325 179.164L65.6993 181.347C65.6773 181.499 65.5479 181.606 65.4006 181.606ZM66.2816 175.821C66.2665 175.821 66.2514 175.82 66.2348 175.817C66.0696 175.792 65.9554 175.637 65.9802 175.472L66.5294 171.87C66.5542 171.705 66.7098 171.591 66.875 171.616C67.0402 171.64 67.1545 171.796 67.1297 171.961L66.5804 175.563C66.5584 175.714 66.429 175.821 66.2816 175.821ZM67.3802 168.62C67.3651 168.62 67.35 168.619 67.3334 168.616C67.1682 168.591 67.054 168.435 67.0787 168.27L67.628 164.669C67.6542 164.504 67.8084 164.389 67.9736 164.414C68.1388 164.439 68.2531 164.594 68.2283 164.76L67.679 168.361C67.657 168.513 67.5275 168.62 67.3802 168.62ZM68.4788 161.418C68.4637 161.418 68.4485 161.417 68.432 161.414C68.2668 161.39 68.1526 161.234 68.1773 161.069L68.7266 157.467C68.7514 157.302 68.907 157.188 69.0722 157.213C69.2374 157.238 69.3516 157.393 69.3269 157.558L68.7776 161.16C68.7555 161.311 68.6261 161.418 68.4788 161.418Z" fill="#D87355"/>
<path d="M207.597 203.595C207.519 203.595 207.442 203.566 207.383 203.508L204.787 200.953C204.667 200.836 204.666 200.643 204.783 200.523C204.9 200.403 205.092 200.402 205.212 200.52L207.809 203.076C207.928 203.193 207.93 203.385 207.813 203.505C207.753 203.564 207.675 203.595 207.597 203.595ZM202.405 198.484C202.328 198.484 202.251 198.455 202.192 198.398L199.595 195.842C199.475 195.725 199.474 195.533 199.591 195.413C199.71 195.293 199.901 195.292 200.021 195.409L202.617 197.964C202.737 198.081 202.738 198.274 202.621 198.393C202.562 198.454 202.484 198.484 202.405 198.484ZM197.212 193.375C197.135 193.375 197.058 193.347 196.999 193.289L194.402 190.734C194.283 190.617 194.281 190.424 194.398 190.304C194.517 190.184 194.708 190.183 194.828 190.301L197.424 192.856C197.544 192.973 197.545 193.166 197.428 193.286C197.369 193.345 197.291 193.375 197.212 193.375Z" fill="#D87355"/>
<path d="M120.198 199.751C120.068 199.751 119.947 199.667 119.907 199.536L118.843 196.053C118.794 195.893 118.884 195.723 119.046 195.674C119.205 195.625 119.376 195.716 119.424 195.875L120.488 199.358C120.538 199.518 120.447 199.689 120.286 199.737C120.257 199.745 120.227 199.751 120.198 199.751ZM118.069 192.783C117.94 192.783 117.819 192.699 117.779 192.569L116.715 189.086C116.665 188.926 116.756 188.755 116.917 188.707C117.077 188.657 117.248 188.748 117.296 188.908L118.36 192.391C118.41 192.551 118.319 192.721 118.158 192.77C118.129 192.779 118.098 192.783 118.069 192.783ZM115.941 185.816C115.812 185.816 115.691 185.732 115.651 185.601L114.586 182.118C114.537 181.959 114.628 181.788 114.789 181.74C114.949 181.69 115.119 181.781 115.167 181.941L116.232 185.424C116.281 185.583 116.19 185.754 116.029 185.802C116 185.812 115.97 185.816 115.941 185.816ZM113.813 178.849C113.683 178.849 113.562 178.765 113.522 178.634L112.458 175.151C112.409 174.991 112.499 174.82 112.661 174.772C112.82 174.723 112.991 174.814 113.039 174.973L114.103 178.456C114.153 178.616 114.062 178.787 113.901 178.835C113.872 178.845 113.842 178.849 113.813 178.849ZM111.684 171.883C111.555 171.883 111.434 171.799 111.394 171.668L110.33 168.185C110.28 168.025 110.371 167.854 110.532 167.806C110.692 167.757 110.863 167.848 110.911 168.007L111.975 171.49C112.024 171.65 111.934 171.821 111.773 171.869C111.744 171.879 111.713 171.883 111.684 171.883ZM109.556 164.915C109.427 164.915 109.306 164.831 109.266 164.7L108.201 161.217C108.152 161.058 108.243 160.887 108.404 160.839C108.564 160.789 108.734 160.88 108.782 161.04L109.847 164.523C109.896 164.683 109.805 164.853 109.644 164.901C109.615 164.911 109.586 164.915 109.556 164.915ZM107.428 157.948C107.298 157.948 107.177 157.864 107.137 157.733L106.073 154.25C106.024 154.09 106.114 153.92 106.275 153.872C106.435 153.822 106.606 153.913 106.654 154.073L107.718 157.556C107.768 157.715 107.677 157.886 107.516 157.934C107.487 157.944 107.458 157.948 107.428 157.948Z" fill="#D87355"/>
<path d="M212.156 115.682C212.137 115.682 212.118 115.681 212.098 115.677L208.545 114.986C208.38 114.954 208.272 114.794 208.305 114.629C208.337 114.464 208.497 114.357 208.661 114.39L212.214 115.081C212.379 115.112 212.486 115.272 212.453 115.437C212.425 115.582 212.298 115.682 212.156 115.682ZM205.028 114.295C205.008 114.295 204.989 114.293 204.97 114.289L201.395 113.593C201.229 113.561 201.122 113.401 201.155 113.236C201.187 113.071 201.346 112.963 201.51 112.997L205.085 113.693C205.251 113.725 205.358 113.884 205.325 114.05C205.296 114.194 205.169 114.295 205.028 114.295ZM197.877 112.903C197.858 112.903 197.839 112.902 197.819 112.897L194.244 112.201C194.079 112.169 193.971 112.009 194.005 111.844C194.036 111.679 194.196 111.573 194.36 111.605L197.935 112.301C198.1 112.333 198.208 112.493 198.174 112.658C198.146 112.802 198.019 112.903 197.877 112.903ZM190.727 111.511C190.707 111.511 190.688 111.51 190.669 111.506L187.094 110.809C186.928 110.777 186.821 110.618 186.854 110.452C186.886 110.287 187.045 110.181 187.209 110.213L190.784 110.909C190.95 110.941 191.057 111.101 191.024 111.266C190.995 111.411 190.868 111.511 190.727 111.511ZM183.575 110.119C183.556 110.119 183.536 110.118 183.517 110.114L179.942 109.417C179.777 109.385 179.669 109.226 179.702 109.061C179.735 108.895 179.894 108.788 180.057 108.821L183.633 109.518C183.798 109.549 183.905 109.709 183.872 109.874C183.845 110.019 183.718 110.119 183.575 110.119ZM176.424 108.727C176.405 108.727 176.386 108.726 176.367 108.722L172.791 108.025C172.626 107.994 172.519 107.834 172.552 107.669C172.583 107.504 172.743 107.398 172.907 107.429L176.482 108.126C176.647 108.157 176.755 108.317 176.722 108.482C176.694 108.627 176.568 108.727 176.424 108.727ZM169.274 107.336C169.255 107.336 169.235 107.334 169.216 107.33L165.641 106.633C165.476 106.602 165.368 106.442 165.401 106.277C165.433 106.112 165.593 106.006 165.756 106.037L169.332 106.733C169.497 106.764 169.604 106.924 169.571 107.089C169.544 107.235 169.417 107.336 169.274 107.336ZM162.123 105.944C162.104 105.944 162.085 105.942 162.066 105.938L158.49 105.242C158.325 105.21 158.218 105.05 158.251 104.885C158.282 104.72 158.442 104.614 158.606 104.646L162.181 105.342C162.346 105.374 162.454 105.534 162.421 105.699C162.393 105.843 162.267 105.944 162.123 105.944ZM154.973 104.552C154.954 104.552 154.934 104.551 154.915 104.546L151.34 103.85C151.175 103.818 151.067 103.658 151.1 103.493C151.132 103.328 151.292 103.222 151.455 103.254L155.031 103.949C155.196 103.981 155.303 104.14 155.27 104.306C155.243 104.45 155.116 104.552 154.973 104.552ZM147.822 103.16C147.803 103.16 147.784 103.159 147.765 103.155L144.189 102.458C144.024 102.426 143.917 102.267 143.95 102.101C143.981 101.936 144.141 101.83 144.305 101.862L147.88 102.559C148.045 102.59 148.153 102.75 148.12 102.915C148.092 103.058 147.966 103.16 147.822 103.16Z" fill="#D87355"/>
</g>
<defs>
<clipPath id="clip0_1041_6010">
<rect width="251.932" height="252" fill="white" transform="translate(0.0673828)"/>
</clipPath>
</defs>
</svg>
