<svg width="40" height="41" viewBox="0 0 40 41" fill="none" xmlns="http://www.w3.org/2000/svg">
<circle cx="20" cy="20.5" r="20" fill="#FFB800" fill-opacity="0.1"/>
<path d="M29.4475 25.0238C29.1332 27.5571 27.057 29.6333 24.5237 29.9476C22.9903 30.138 21.5618 29.719 20.4475 28.9C19.8094 28.4333 19.9617 27.4428 20.7237 27.2142C23.5903 26.3476 25.8475 24.0809 26.7237 21.2142C26.9522 20.4619 27.9427 20.3095 28.4094 20.938C29.2189 22.0619 29.6379 23.4904 29.4475 25.0238Z" fill="#FFB800"/>
<path d="M18.0856 10.9762C13.8856 10.9762 10.4761 14.3857 10.4761 18.5857C10.4761 22.7857 13.8856 26.1952 18.0856 26.1952C22.2856 26.1952 25.6951 22.7857 25.6951 18.5857C25.6856 14.3857 22.2856 10.9762 18.0856 10.9762ZM17.1904 17.5191L19.4856 18.3191C20.3142 18.6143 20.7142 19.1952 20.7142 20.0905C20.7142 21.1191 19.8951 21.9667 18.8951 21.9667H18.8094V22.0143C18.8094 22.4048 18.4856 22.7286 18.0951 22.7286C17.7046 22.7286 17.3808 22.4048 17.3808 22.0143V21.9571C16.3237 21.9095 15.4761 21.0238 15.4761 19.9191C15.4761 19.5286 15.7999 19.2048 16.1904 19.2048C16.5808 19.2048 16.9046 19.5286 16.9046 19.9191C16.9046 20.2619 17.1523 20.5381 17.457 20.5381H18.8856C19.1046 20.5381 19.2761 20.3381 19.2761 20.0905C19.2761 19.7571 19.2189 19.7381 18.9999 19.6619L16.7046 18.8619C15.8856 18.5762 15.4761 17.9952 15.4761 17.0905C15.4761 16.0619 16.2951 15.2143 17.2951 15.2143H17.3808V15.1762C17.3808 14.7857 17.7046 14.4619 18.0951 14.4619C18.4856 14.4619 18.8094 14.7857 18.8094 15.1762V15.2333C19.8666 15.281 20.7142 16.1667 20.7142 17.2714C20.7142 17.6619 20.3904 17.9857 19.9999 17.9857C19.6094 17.9857 19.2856 17.6619 19.2856 17.2714C19.2856 16.9286 19.038 16.6524 18.7332 16.6524H17.3046C17.0856 16.6524 16.9142 16.8524 16.9142 17.1C16.9046 17.4238 16.9618 17.4429 17.1904 17.5191Z" fill="#FFB800"/>
</svg>
