<svg width="40" height="41" viewBox="0 0 40 41" fill="none" xmlns="http://www.w3.org/2000/svg">
<circle cx="20" cy="20.5" r="20" fill="#079675" fill-opacity="0.1"/>
<path d="M17.143 10.619C14.6477 10.619 12.6191 12.6476 12.6191 15.1428C12.6191 17.5904 14.5334 19.5714 17.0287 19.6571C17.1049 19.6476 17.181 19.6476 17.2382 19.6571C17.2572 19.6571 17.2668 19.6571 17.2858 19.6571C17.2953 19.6571 17.2953 19.6571 17.3049 19.6571C19.743 19.5714 21.6572 17.5904 21.6668 15.1428C21.6668 12.6476 19.6382 10.619 17.143 10.619Z" fill="#079675"/>
<path d="M21.9808 22.1904C19.3237 20.419 14.9904 20.419 12.3142 22.1904C11.1047 22.9999 10.438 24.0951 10.438 25.2666C10.438 26.438 11.1047 27.5237 12.3047 28.3237C13.638 29.219 15.3904 29.6666 17.1428 29.6666C18.8951 29.6666 20.6475 29.219 21.9808 28.3237C23.1808 27.5142 23.8475 26.4285 23.8475 25.2475C23.838 24.0761 23.1808 22.9904 21.9808 22.1904Z" fill="#079675"/>
<path d="M27.6093 15.7047C27.7617 17.5524 26.4474 19.1714 24.6283 19.3905C24.6188 19.3905 24.6188 19.3905 24.6093 19.3905H24.5807C24.5236 19.3905 24.4664 19.3905 24.4188 19.4095C23.495 19.4571 22.6474 19.1619 22.0093 18.619C22.9902 17.7428 23.5521 16.4285 23.4378 15C23.3712 14.2285 23.1045 13.5238 22.7045 12.9238C23.0664 12.7428 23.4855 12.6286 23.914 12.5905C25.7807 12.4286 27.4474 13.819 27.6093 15.7047Z" fill="#079675"/>
<path d="M29.5141 24.5143C29.4379 25.4381 28.8474 26.2381 27.8569 26.7809C26.9045 27.3047 25.7045 27.5524 24.5141 27.5238C25.1998 26.9047 25.5998 26.1333 25.676 25.3143C25.7712 24.1333 25.2093 23 24.0855 22.0952C23.4474 21.5905 22.7045 21.1905 21.895 20.8952C23.9998 20.2857 26.6474 20.6952 28.276 22.0095C29.1522 22.7143 29.5998 23.6 29.5141 24.5143Z" fill="#079675"/>
</svg>
