<svg width="111" height="29" viewBox="0 0 111 29" fill="none" xmlns="http://www.w3.org/2000/svg">
<path d="M0 28.8433L12.4444 0.843262L20.2222 17.9544L15.5556 28.8433H0Z" fill="#24947A"/>
<path d="M40.444 28.8433L27.9995 0.843262L20.2217 17.9544L24.8884 28.8433H40.444Z" fill="#24947A"/>
<path d="M55.6759 6.94113C57.8661 6.94113 59.7079 7.93669 60.2804 10.0771H63.6404C63.1177 6.36869 59.907 3.95447 55.7506 3.95447C50.275 3.95447 46.6661 7.88691 46.6661 13.4122C46.6661 19.0122 50.2252 22.7207 55.3275 22.7207C57.7915 22.7207 59.8573 21.75 60.8528 20.3562L61.0519 22.4469H63.7399V12.2176H55.2777V15.03H60.7781V15.1047C60.7781 18.0167 58.8617 19.7589 55.7008 19.7589C52.3408 19.7589 50.0012 17.5438 50.0012 13.4869C50.0012 9.55447 52.067 6.94113 55.6759 6.94113Z" fill="#192839"/>
<path d="M68.2504 7.6878C69.246 7.6878 70.0673 6.86647 70.0673 5.84602C70.0673 4.82558 69.246 4.02913 68.2504 4.02913C67.2051 4.02913 66.3838 4.82558 66.3838 5.84602C66.3838 6.86647 67.2051 7.6878 68.2504 7.6878ZM66.7322 22.4469H69.7687V10.1518H66.7322V22.4469Z" fill="#192839"/>
<path d="M72.2089 16.0256C72.2089 19.5847 74.4987 22.198 77.9832 22.198C79.7503 22.198 81.2685 21.4762 82.0401 20.3314V22.3722C82.0401 24.4131 80.6961 25.7322 78.6054 25.7322C76.7387 25.7322 75.5192 24.7865 75.3201 23.1936H72.2836C72.6569 26.4789 75.0712 28.4949 78.6054 28.4949C82.5876 28.4949 85.0516 25.9314 85.0516 21.8247V10.1518H82.2392L82.0649 11.8442C81.3432 10.5251 79.8996 9.75358 78.0578 9.75358C74.5485 9.75358 72.2089 12.4416 72.2089 16.0256ZM75.2703 15.9509C75.2703 13.9349 76.5645 12.4167 78.5805 12.4167C80.6961 12.4167 81.9654 13.8602 81.9654 15.9509C81.9654 18.0914 80.6712 19.5598 78.5805 19.5598C76.5894 19.5598 75.2703 18.0167 75.2703 15.9509Z" fill="#192839"/>
<path d="M97.4776 22.4469V19.9082H91.2554L97.4776 12.6656V10.1518H87.5469V12.6905H93.6696L87.5469 19.958V22.4469H97.4776Z" fill="#192839"/>
<path d="M103.617 22.7705C105.533 22.7705 107.201 21.8994 107.723 20.63L107.947 22.4469H110.61V14.9802C110.61 11.5705 108.569 9.77847 105.259 9.77847C101.924 9.77847 99.7339 11.5207 99.7339 14.1838H102.322C102.322 12.8896 103.318 12.1429 105.11 12.1429C106.653 12.1429 107.649 12.8149 107.649 14.4825V14.7562L103.965 15.03C101.053 15.254 99.4104 16.6727 99.4104 18.9376C99.4104 21.2522 101.003 22.7705 103.617 22.7705ZM104.612 20.4807C103.243 20.4807 102.497 19.9331 102.497 18.8131C102.497 17.8176 103.218 17.1954 105.11 17.0211L107.673 16.822V17.4691C107.673 19.3607 106.479 20.4807 104.612 20.4807Z" fill="#192839"/>
</svg>
