<svg width="52" height="53" viewBox="0 0 52 53" fill="none" xmlns="http://www.w3.org/2000/svg">
<rect y="0.5" width="52" height="52" rx="8" fill="#FFB800" fill-opacity="0.2"/>
<g clip-path="url(#clip0_654_4235)">
<path d="M29.2224 12.6967C29.3356 12.7872 29.4569 12.8691 29.5599 12.9706C30.1298 13.5354 30.6894 14.1103 31.2658 14.6677C31.3893 14.7868 31.5573 14.8847 31.7224 14.9322C32.5005 15.1572 33.2815 15.372 34.0676 15.5664C34.3759 15.6423 34.5205 15.8082 34.5943 16.1099C34.785 16.888 34.9947 17.6609 35.2153 18.4302C35.2628 18.596 35.3592 18.7648 35.4783 18.889C36.0474 19.4793 36.6282 20.0601 37.2149 20.6329C37.4136 20.8272 37.4691 21.0237 37.3917 21.2948C37.1645 22.0911 36.9526 22.8918 36.7495 23.6947C36.7115 23.8445 36.7093 24.0206 36.7466 24.1703C36.9424 24.9469 37.1447 25.7221 37.3683 26.4906C37.464 26.8179 37.4107 27.0539 37.1572 27.2943C36.5676 27.851 35.9999 28.4318 35.4323 29.0118C35.3358 29.1105 35.2569 29.2456 35.2197 29.3771C34.9954 30.1742 34.7791 30.9734 34.5746 31.7763C34.5015 32.0635 34.362 32.2381 34.0573 32.2958C33.7753 32.3491 33.5006 32.4448 33.2011 32.5281C33.2595 32.637 33.3034 32.7246 33.3523 32.8094C34.3035 34.4575 35.2562 36.1057 36.2074 37.7539C36.3345 37.9745 36.5106 38.2134 36.3287 38.4596C36.1365 38.719 35.8582 38.5692 35.6208 38.5086C34.8909 38.3208 34.1647 38.1206 33.4166 37.9197C33.204 38.7073 32.9958 39.4686 32.7934 40.232C32.7386 40.4395 32.6955 40.6579 32.4376 40.693C32.1644 40.7303 32.0358 40.5381 31.9167 40.3314C30.9633 38.6737 30.0041 37.0189 29.0543 35.3598C28.9565 35.1896 28.8432 35.0895 28.6467 35.042C28.1338 34.9193 27.6261 34.7724 27.1169 34.6329C26.8086 34.5489 26.6603 34.3509 26.7224 34.1142C26.7888 33.8592 27.0124 33.7606 27.3382 33.8475C27.8131 33.9739 28.2887 34.0966 28.7614 34.2333C28.9207 34.2793 29.0273 34.2501 29.1457 34.1303C29.6812 33.583 30.2182 33.0366 30.7741 32.5106C30.9312 32.3623 31.1401 32.2395 31.3469 32.1782C32.0884 31.959 32.838 31.7668 33.5876 31.5754C33.7417 31.536 33.8104 31.4637 33.8498 31.3117C34.0486 30.5453 34.2509 29.7797 34.4723 29.0199C34.5227 28.846 34.6272 28.6692 34.7528 28.5392C35.2964 27.9744 35.8545 27.4236 36.4149 26.8756C36.534 26.7595 36.561 26.6579 36.515 26.4936C36.3068 25.7579 36.1044 25.0207 35.9291 24.277C35.8779 24.0585 35.8808 23.808 35.9327 23.5888C36.1073 22.8546 36.309 22.1262 36.5157 21.3993C36.5647 21.2268 36.5413 21.1187 36.412 20.9923C35.8509 20.4444 35.2949 19.8914 34.7528 19.3259C34.6272 19.1951 34.5278 19.0154 34.4781 18.8408C34.2619 18.089 34.0661 17.3307 33.8703 16.5731C33.8294 16.416 33.7593 16.3335 33.5919 16.2911C32.8248 16.096 32.0599 15.8922 31.2994 15.6723C31.1336 15.6241 30.9641 15.5262 30.8391 15.4056C30.2693 14.854 29.7119 14.29 29.1566 13.7231C29.0485 13.6128 28.9557 13.5807 28.8008 13.6245C28.0294 13.8393 27.2557 14.046 26.4783 14.2404C26.3271 14.2783 26.151 14.2805 25.9998 14.2426C25.2232 14.0482 24.4488 13.8415 23.6781 13.6238C23.5027 13.5741 23.3982 13.6121 23.2762 13.737C22.7276 14.2973 22.1745 14.8533 21.6098 15.3961C21.4856 15.5159 21.3146 15.6116 21.1481 15.6591C20.3868 15.8776 19.6212 16.0799 18.8541 16.2765C18.6904 16.3181 18.6166 16.3963 18.575 16.5563C18.3763 17.3227 18.1739 18.0883 17.954 18.8488C17.9058 19.0147 17.8086 19.1849 17.6881 19.3091C17.1365 19.8789 16.5718 20.4364 16.0056 20.9916C15.8945 21.1005 15.866 21.1947 15.9099 21.3503C16.1166 22.086 16.3212 22.8231 16.495 23.5676C16.5476 23.7941 16.544 24.0542 16.4899 24.2814C16.3161 25.0163 16.1137 25.7447 15.9084 26.4709C15.8624 26.6338 15.8857 26.7376 16.0063 26.8552C16.5725 27.4104 17.1358 27.9693 17.6859 28.5406C17.8057 28.6648 17.9007 28.8365 17.9489 29.0023C18.1622 29.7461 18.3609 30.4935 18.5487 31.2437C18.5969 31.4359 18.6795 31.5265 18.876 31.5762C19.6438 31.7683 20.4087 31.9743 21.17 32.192C21.319 32.2344 21.4688 32.3308 21.5813 32.4397C22.1241 32.9672 22.664 33.4976 23.1835 34.0477C23.3683 34.2428 23.5334 34.2764 23.7796 34.1982C24.2304 34.055 24.6899 33.9396 25.1487 33.8241C25.5191 33.7314 25.8157 33.9586 25.712 34.2764C25.6659 34.4174 25.4899 34.5657 25.3416 34.6139C24.8316 34.779 24.3042 34.89 23.7906 35.0464C23.6605 35.0858 23.5166 35.1918 23.4487 35.3072C22.4836 36.9583 21.5302 38.616 20.5738 40.2722C20.5373 40.335 20.5154 40.4198 20.4606 40.457C20.3262 40.5483 20.1662 40.6945 20.0376 40.6755C19.9097 40.6565 19.7468 40.4819 19.7052 40.3431C19.4882 39.6293 19.3056 38.9053 19.1098 38.1857C19.0886 38.1075 19.0645 38.0301 19.0338 37.9256C18.3142 38.1185 17.6062 38.3113 16.8969 38.4962C16.731 38.5393 16.5579 38.5773 16.3884 38.578C16.1466 38.5787 16.0202 38.4165 16.0728 38.1784C16.1035 38.0396 16.167 37.9037 16.2386 37.7787C17.1913 36.1211 18.1483 34.4649 19.1039 32.8086C19.1529 32.7232 19.1982 32.6362 19.2595 32.5237C18.9381 32.4375 18.6444 32.3469 18.3449 32.2826C18.0607 32.222 17.9131 32.0642 17.8415 31.7822C17.6369 30.9705 17.4178 30.1625 17.1913 29.3559C17.154 29.2237 17.0751 29.0886 16.9794 28.9899C16.3935 28.3894 15.8025 27.7947 15.2027 27.2088C15.0098 27.0203 14.9594 26.8296 15.0324 26.5703C15.2567 25.7732 15.4708 24.9732 15.6731 24.1703C15.7133 24.0118 15.7155 23.827 15.6761 23.6692C15.4817 22.8926 15.2786 22.1174 15.0558 21.3481C14.9638 21.031 15.0156 20.8009 15.2611 20.5686C15.8499 20.0104 16.4183 19.4311 16.9853 18.851C17.0875 18.7465 17.1723 18.6034 17.2117 18.4623C17.4346 17.6741 17.6494 16.8836 17.8481 16.0894C17.9233 15.7892 18.0782 15.6241 18.3814 15.5495C19.15 15.3603 19.9156 15.1572 20.6761 14.9373C20.8661 14.8825 21.0611 14.7744 21.2043 14.6385C21.7786 14.0913 22.3316 13.5229 22.8949 12.9648C22.9913 12.8698 23.1009 12.788 23.2046 12.7003C23.296 12.7003 23.3873 12.7003 23.4779 12.7003C23.4998 12.7157 23.5195 12.7383 23.5436 12.7449C24.4021 12.9765 25.2612 13.2066 26.1204 13.4353C26.1715 13.4491 26.2307 13.4638 26.2789 13.4506C27.1877 13.1993 28.0958 12.9472 29.0032 12.6967C29.0763 12.6967 29.1493 12.6967 29.2224 12.6967ZM20.2385 39.2056C21.1108 37.6947 21.9459 36.2496 22.7568 34.8455C22.4332 34.5182 22.1358 34.2179 21.8355 33.9155C21.8202 33.9388 21.7939 33.9754 21.7713 34.0141C21.4432 34.581 21.1203 35.1516 20.7835 35.7134C20.717 35.8237 20.6089 35.964 20.5022 35.9815C20.3612 36.0042 20.172 35.9589 20.0595 35.8712C19.8937 35.7419 19.9419 35.5432 20.0391 35.373C20.4058 34.7337 20.7682 34.0915 21.1473 33.4596C21.2438 33.2996 21.2416 33.1754 21.086 33.1016C20.8449 32.9862 20.5841 32.9124 20.3371 32.8079C20.1435 32.7254 20.0508 32.7962 19.9529 32.9679C19.1273 34.4144 18.2915 35.8551 17.4594 37.298C17.4258 37.3557 17.401 37.4186 17.3681 37.4865C17.4075 37.4894 17.4258 37.496 17.4419 37.4916C17.9781 37.3506 18.5151 37.2082 19.0513 37.0664C19.4977 36.9481 19.6504 37.0343 19.7695 37.4726C19.9185 38.0242 20.0676 38.5758 20.2385 39.2056ZM29.679 34.8111C30.5045 36.2394 31.3454 37.6955 32.2112 39.1931C32.2492 39.0726 32.2703 39.0127 32.2864 38.952C32.4238 38.4428 32.5567 37.9322 32.6977 37.4244C32.8015 37.0511 32.9695 36.9561 33.3465 37.0489C33.532 37.0949 33.7147 37.1497 33.8995 37.1987C34.2882 37.3009 34.6769 37.4025 35.1181 37.5179C35.0385 37.3762 34.9917 37.29 34.9428 37.2045C34.1647 35.8566 33.3867 34.5094 32.6093 33.1622C32.3704 32.748 32.3712 32.748 31.9116 32.8693C31.6442 32.9394 31.3498 32.9606 31.203 33.2682C31.5244 33.8241 31.8488 34.3823 32.1703 34.9426C32.2747 35.1238 32.3843 35.3036 32.4698 35.4935C32.5582 35.6922 32.507 35.8741 32.3207 35.9939C32.1301 36.1167 31.9503 36.0626 31.805 35.9077C31.7319 35.8296 31.6793 35.7302 31.6245 35.636C31.2819 35.0479 30.9422 34.459 30.6083 33.8826C30.2934 34.196 29.9939 34.4955 29.679 34.8111Z" fill="black"/>
<path d="M26.2757 31.9758C22.2766 31.9794 18.9028 29.1039 18.273 25.2136C18.2219 24.8994 18.1919 24.5816 18.1736 24.2638C18.1576 23.9782 18.3095 23.8065 18.5514 23.7933C18.8136 23.7795 18.9744 23.9519 18.9904 24.2704C19.0423 25.3034 19.2973 26.2846 19.7663 27.2051C21.1259 29.871 24.0402 31.4688 27.0582 31.1042C30.4656 30.6929 32.8209 28.1008 33.328 25.1931C34.041 21.1048 31.2517 17.2978 27.1509 16.7521C23.4718 16.2626 19.9818 18.6961 19.1592 22.3234C19.1351 22.4286 19.1234 22.574 19.0525 22.623C18.9247 22.7121 18.7333 22.8158 18.6105 22.7779C18.4878 22.7399 18.3446 22.5404 18.3373 22.4045C18.3249 22.1861 18.4038 21.9581 18.4659 21.7397C19.3484 18.6187 22.0187 16.3291 25.2354 15.9302C29.5063 15.4012 33.4792 18.3834 34.1557 22.6252C34.8892 27.2212 31.6389 31.4636 27.0216 31.9349C26.7491 31.9634 26.4752 31.9656 26.2757 31.9758Z" fill="black"/>
<path d="M26.2166 30.3028C23.0225 30.2852 20.2697 27.8458 19.9132 24.6883C19.5201 21.2078 21.9069 18.1102 25.3662 17.6324C26.8558 17.4264 28.2446 17.7398 29.5297 18.5193C29.8271 18.6998 29.914 18.9153 29.7832 19.1432C29.6539 19.3668 29.4077 19.4033 29.1184 19.2265C28.2592 18.702 27.3285 18.4207 26.3239 18.3944C23.4506 18.3206 21.0382 20.4744 20.7036 23.4076C20.3961 26.1078 22.3204 28.7423 25.0257 29.3231C28.6589 30.1041 31.9939 27.2176 31.7287 23.5092C31.6506 22.4111 31.2685 21.4175 30.589 20.5438C30.326 20.2062 30.3048 19.9827 30.5204 19.8066C30.7476 19.6218 30.9624 19.6926 31.2407 20.0455C34.1184 23.694 32.0516 29.2588 27.4878 30.1399C27.0691 30.2209 26.6403 30.2502 26.2166 30.3028Z" fill="black"/>
<path d="M26.1961 20.402C26.5175 20.4035 26.7367 20.5555 26.8748 20.8331C27.0727 21.2327 27.262 21.6367 27.4746 22.0283C27.525 22.1211 27.6462 22.2131 27.7493 22.2321C28.1781 22.3132 28.6121 22.3717 29.0446 22.4301C29.3624 22.4725 29.5998 22.623 29.697 22.932C29.7927 23.2374 29.7006 23.5026 29.4661 23.724C29.149 24.025 28.8305 24.326 28.5302 24.643C28.4579 24.7197 28.4134 24.8666 28.428 24.9725C28.4871 25.4145 28.5712 25.8529 28.6501 26.2912C28.7034 26.5885 28.6165 26.8355 28.3797 27.0174C28.1408 27.2008 27.8742 27.2154 27.6075 27.0802C27.2094 26.8786 26.8112 26.6777 26.424 26.457C26.2677 26.3679 26.15 26.3752 25.9988 26.4607C25.6342 26.666 25.2573 26.8494 24.8883 27.0473C24.5968 27.2037 24.3104 27.2176 24.0431 27.0115C23.7866 26.8136 23.7238 26.5469 23.7881 26.2298C23.8736 25.8112 23.9466 25.3889 24.0007 24.9645C24.0138 24.8593 23.9656 24.7132 23.8933 24.6364C23.593 24.3186 23.276 24.0169 22.9582 23.7167C22.7222 23.4938 22.6345 23.2294 22.7331 22.9247C22.8332 22.6157 23.0714 22.4688 23.3892 22.4287C23.8049 22.3768 24.2177 22.3074 24.6334 22.2555C24.8021 22.2343 24.9044 22.1678 24.9782 22.0035C25.1564 21.6053 25.3603 21.2181 25.5553 20.8272C25.6876 20.5613 25.898 20.4108 26.1961 20.402ZM23.6734 23.2184C23.9547 23.5106 24.1899 23.8058 24.4748 24.0388C24.8372 24.3355 24.9504 24.6591 24.8182 25.115C24.7145 25.4708 24.6882 25.8492 24.6209 26.2612C25.041 26.0413 25.4238 25.8682 25.7774 25.6476C26.0909 25.4525 26.3582 25.4708 26.6651 25.6541C27.0216 25.8675 27.3993 26.045 27.8099 26.2598C27.7485 25.9018 27.6886 25.5906 27.6419 25.2779C27.5074 24.372 27.3876 24.616 28.0919 23.9146C28.3133 23.694 28.5244 23.4624 28.756 23.2184C28.3169 23.1548 27.9056 23.0774 27.4906 23.0394C27.1568 23.0087 26.9398 22.878 26.8054 22.558C26.6381 22.162 26.4276 21.7843 26.2121 21.3511C25.9878 21.8055 25.7782 22.1971 25.5999 22.6033C25.4786 22.8794 25.285 23 24.995 23.0328C24.5618 23.0803 24.1315 23.1527 23.6734 23.2184Z" fill="black"/>
<path d="M20.2382 39.2056C20.0673 38.5758 19.919 38.0235 19.7685 37.4719C19.6494 37.0336 19.496 36.9474 19.0503 37.0657C18.5141 37.2074 17.9778 37.3499 17.4409 37.4909C17.4248 37.4953 17.4065 37.4887 17.3671 37.4858C17.3999 37.4178 17.4248 37.355 17.4584 37.2973C18.2905 35.8544 19.1263 34.4137 19.9518 32.9672C20.0505 32.7948 20.1425 32.7246 20.3361 32.8072C20.5831 32.9124 20.8431 32.9862 21.085 33.1009C21.2398 33.1747 21.242 33.2981 21.1463 33.4589C20.7672 34.0908 20.4048 34.733 20.038 35.3722C19.9409 35.5425 19.8927 35.7412 20.0585 35.8705C20.171 35.9582 20.3602 36.0035 20.5012 35.9808C20.6079 35.9633 20.7168 35.823 20.7825 35.7127C21.1193 35.1509 21.4422 34.5803 21.7702 34.0134C21.7929 33.9746 21.8192 33.9381 21.8345 33.9147C22.1348 34.2179 22.4314 34.5182 22.7558 34.8448C21.9448 36.2497 21.1105 37.6955 20.2382 39.2056Z" fill="#FFB800"/>
<path d="M29.6787 34.8111C29.9936 34.4963 30.2939 34.196 30.6073 33.8819C30.9411 34.4583 31.2816 35.0471 31.6235 35.6352C31.6783 35.7295 31.7309 35.8288 31.804 35.907C31.9493 36.0619 32.1291 36.116 32.3197 35.9932C32.5053 35.8734 32.5572 35.6908 32.4688 35.4928C32.384 35.3028 32.2737 35.1231 32.1692 34.9419C31.8478 34.3823 31.5234 33.8234 31.202 33.2674C31.3488 32.9599 31.6432 32.9394 31.9106 32.8686C32.3701 32.7473 32.3694 32.7473 32.6083 33.1615C33.3856 34.5094 34.1644 35.8566 34.9418 37.2038C34.9907 37.2893 35.0382 37.3755 35.1171 37.5172C34.6751 37.4018 34.2864 37.3002 33.8985 37.1979C33.7137 37.149 33.531 37.0942 33.3455 37.0482C32.9685 36.9554 32.8005 37.0496 32.6967 37.4237C32.5557 37.9322 32.4227 38.4421 32.2854 38.9513C32.2693 39.0127 32.2481 39.0719 32.2102 39.1924C31.3452 37.6955 30.5035 36.2394 29.6787 34.8111Z" fill="#FFB800"/>
<path d="M23.6735 23.2184C24.1315 23.1526 24.5618 23.0803 24.9951 23.0321C25.2851 22.9999 25.4787 22.8794 25.6 22.6025C25.7782 22.197 25.9879 21.8047 26.2122 21.3503C26.4277 21.7835 26.6389 22.1612 26.8054 22.5572C26.9399 22.8765 27.1576 23.008 27.4907 23.0387C27.9057 23.0767 28.317 23.1534 28.7561 23.2177C28.5245 23.4617 28.3133 23.6933 28.092 23.9139C27.3877 24.6152 27.5075 24.3712 27.6419 25.2771C27.6887 25.5898 27.7479 25.9011 27.81 26.259C27.4001 26.0443 27.0217 25.8675 26.6652 25.6534C26.3591 25.47 26.0909 25.451 25.7775 25.6468C25.4239 25.8675 25.0411 26.0406 24.621 26.2605C24.689 25.8492 24.7153 25.4708 24.8183 25.1142C24.9505 24.6591 24.838 24.3354 24.4749 24.0381C24.19 23.805 23.9547 23.5106 23.6735 23.2184Z" fill="#FFB800"/>
</g>
<defs>
<clipPath id="clip0_654_4235">
<rect width="22.425" height="28" fill="white" transform="translate(15 12.6967)"/>
</clipPath>
</defs>
</svg>
