<svg width="116" height="36" viewBox="0 0 116 36" fill="none" xmlns="http://www.w3.org/2000/svg">
<g clip-path="url(#clip0_610_3053)">
<path d="M33.1709 25.5137C32.9894 25.075 32.8192 24.6137 32.6377 24.22L31.7982 22.3412L31.7642 22.3075C29.2684 16.9075 26.6024 11.4175 23.7776 6.01747L23.6642 5.79247C23.3805 5.26372 23.0969 4.67872 22.802 4.13872C22.4389 3.49747 22.0873 2.81122 21.5087 2.15872C20.9447 1.47599 20.235 0.925929 19.4306 0.548229C18.6263 0.170529 17.7474 -0.0253906 16.8574 -0.0253906C15.9675 -0.0253906 15.0886 0.170529 14.2842 0.548229C13.4799 0.925929 12.7701 1.47599 12.2062 2.15872C11.673 2.81122 11.2759 3.49747 10.9129 4.13872C10.6293 4.72372 10.3457 5.29747 10.0507 5.82622L9.93726 6.05122C7.15785 11.4512 4.44651 16.9412 1.95071 22.3412L1.88264 22.4087C1.63306 22.9937 1.3381 23.6012 1.05449 24.2537C0.872977 24.6475 0.691465 25.075 0.509952 25.5475C0.0199049 26.7847 -0.136583 28.1273 0.0559121 29.4428C0.248407 30.7583 0.783239 32.0013 1.6077 33.0494C2.43216 34.0975 3.51779 34.9145 4.7576 35.4198C5.99741 35.9252 7.34861 36.1014 8.67802 35.9312C9.95254 35.7648 11.1798 35.3439 12.2856 34.6937C13.7604 33.8725 15.1784 32.68 16.7667 30.9587C18.3549 32.68 19.807 33.8725 21.2478 34.705C22.6333 35.5114 24.2023 35.9565 25.8083 35.9987C27.668 36.0064 29.4678 35.3465 30.8753 34.141C32.2828 32.9355 33.2029 31.2657 33.4658 29.44C33.7697 28.128 33.6669 26.7555 33.1709 25.5025V25.5137ZM16.8801 27.3812C14.9289 24.9062 13.6583 22.6337 13.2272 20.6875C13.0486 19.9663 13.0101 19.2179 13.1137 18.4825C13.1931 17.9087 13.4087 17.4025 13.7036 16.975C14.3843 15.9962 15.5755 15.3887 16.8801 15.3887C17.4997 15.3699 18.1143 15.504 18.6687 15.7789C19.2231 16.0538 19.7 16.4609 20.0566 16.9637C20.3515 17.4137 20.5671 17.9087 20.6352 18.4825C20.7486 19.135 20.7032 19.8887 20.5217 20.6875C20.0906 22.6 18.82 24.895 16.8801 27.3812ZM31.3331 29.0462C31.2042 29.9732 30.8326 30.8504 30.2554 31.5906C29.6781 32.3308 28.9154 32.9081 28.0431 33.265C27.181 33.625 26.228 33.7262 25.2978 33.625C24.3902 33.5125 23.4826 33.22 22.5524 32.68C21.0078 31.7333 19.619 30.5571 18.4343 29.1925C20.8167 26.2675 22.2574 23.6012 22.802 21.2275C23.0629 20.1025 23.0969 19.09 22.9835 18.1562C22.8418 17.2712 22.509 16.4269 22.0079 15.6812C21.4356 14.8726 20.6719 14.2158 19.7837 13.7686C18.8955 13.3213 17.9101 13.0973 16.9142 13.1162C14.8154 13.1162 12.9436 14.0837 11.8091 15.67C11.2984 16.4138 10.9684 17.2648 10.8448 18.1562C10.6973 19.1012 10.7314 20.1475 11.0263 21.2275C11.5709 23.6012 13.0457 26.3012 15.394 29.215C14.2294 30.6056 12.8373 31.7922 11.2759 32.725C10.3343 33.265 9.4381 33.5462 8.53054 33.6587C7.11915 33.838 5.69344 33.4576 4.56331 32.6002C3.43318 31.7428 2.68998 30.4778 2.49525 29.08C2.3818 28.18 2.46121 27.28 2.82424 26.2675C2.93768 25.9075 3.10785 25.5475 3.28936 25.12C3.53894 24.535 3.8339 23.9275 4.11752 23.32L4.16289 23.2412C6.61331 17.875 9.29062 12.3962 12.07 7.02997L12.1835 6.80497C12.4671 6.26497 12.7507 5.69122 13.0457 5.15122C13.3406 4.57747 13.6583 4.02622 14.0667 3.57622C14.4202 3.15774 14.8619 2.8212 15.3607 2.59029C15.8596 2.35937 16.4034 2.2397 16.9539 2.2397C17.5044 2.2397 18.0482 2.35937 18.547 2.59029C19.0458 2.8212 19.4875 3.15774 19.841 3.57622C20.2381 4.02622 20.5671 4.57747 20.8621 5.15122C21.1457 5.69122 21.4293 6.27622 21.7242 6.80497L21.8377 7.02997C24.6057 12.3962 27.2831 17.875 29.7789 23.2412L29.8129 23.275C30.1079 23.86 30.3574 24.5125 30.641 25.075C30.8226 25.5137 31.0041 25.8625 31.1175 26.2337C31.3331 27.2462 31.4465 28.1462 31.3331 29.0462ZM47.1247 27.1337C46.2698 27.1461 45.4231 26.9675 44.6474 26.6111C43.8716 26.2547 43.1867 25.7297 42.6436 25.075C41.423 23.6799 40.7752 21.8812 40.8284 20.035C40.8098 18.1486 41.4785 16.3189 42.7116 14.8825C43.282 14.2194 43.9921 13.6884 44.7918 13.3269C45.5915 12.9654 46.4614 12.7821 47.3402 12.79C48.1671 12.7675 48.9863 12.954 49.7205 13.3318C50.4548 13.7097 51.0801 14.2665 51.5377 14.95L51.6511 13.1837H54.9637V26.7737H51.6398L51.5263 24.7937C51.0546 25.5235 50.4026 26.1215 49.6322 26.5311C48.8618 26.9406 47.9986 27.1481 47.1247 27.1337ZM47.9868 23.8937C48.6448 23.8937 49.2234 23.7137 49.7679 23.3875C50.2671 23.0275 50.6755 22.555 50.9931 21.9812C51.2768 21.4075 51.4242 20.7212 51.4242 19.9562C51.4685 19.2918 51.338 18.6274 51.0457 18.0279C50.7534 17.4284 50.3092 16.9144 49.7566 16.5362C49.2256 16.2081 48.6125 16.0342 47.9868 16.0342C47.3612 16.0342 46.7481 16.2081 46.2171 16.5362C45.7179 16.8962 45.3095 17.3687 44.9919 17.9425C44.6919 18.5752 44.5443 19.2685 44.5608 19.9675C44.5166 20.6319 44.647 21.2963 44.9393 21.8958C45.2316 22.4953 45.6758 23.0093 46.2284 23.3875C46.7616 23.7137 47.3402 23.8937 47.9868 23.8937ZM60.636 9.51622C60.636 9.90997 60.5679 10.27 60.3864 10.5625C60.2049 10.8437 59.9553 11.1025 59.6263 11.2825C59.2973 11.4625 58.9457 11.53 58.5826 11.53C58.2196 11.53 57.8566 11.4625 57.5276 11.2825C57.2164 11.1107 56.9548 10.8628 56.7675 10.5625C56.5918 10.242 56.5057 9.88079 56.5179 9.51622C56.5179 9.11122 56.5973 8.75122 56.7675 8.46997C56.949 8.13247 57.2099 7.92997 57.5276 7.74997C57.8566 7.56997 58.2083 7.49122 58.5826 7.49122C58.9437 7.48297 59.3008 7.56778 59.619 7.73736C59.9371 7.90695 60.2055 8.1555 60.3978 8.45872C60.5629 8.78671 60.6446 9.14974 60.636 9.51622ZM56.7789 26.7287V13.1612H60.3864V26.7512H56.7675L56.7789 26.7287ZM70.0293 16.7162V16.7612C69.8591 16.6825 69.6322 16.6487 69.462 16.615C69.2352 16.57 69.0536 16.57 68.8381 16.57C67.8284 16.57 67.0684 16.8625 66.5692 17.47C66.0247 18.0887 65.7751 18.955 65.7751 20.0687V26.74H62.1562V13.15H65.4801L65.5936 15.2087C65.9566 14.4887 66.3877 13.9487 67.0003 13.5437C67.6096 13.1502 68.327 12.9537 69.0536 12.9812C69.3146 12.9812 69.5641 13.0037 69.7797 13.0487C69.8931 13.0825 69.9612 13.0825 70.0293 13.1162V16.7162ZM71.4814 26.7287V7.58122H75.0889V14.8937C75.5994 14.2412 76.178 13.735 76.9041 13.3412C78.0535 12.7824 79.3593 12.6238 80.6107 12.8912C81.8621 13.1586 82.9862 13.8363 83.8015 14.815C85.0248 16.2129 85.6728 18.0162 85.6167 19.8662C85.6354 21.7526 84.9666 23.5823 83.7335 25.0187C83.1631 25.6818 82.453 26.2128 81.6533 26.5743C80.8536 26.9358 79.9837 27.1191 79.1049 27.1112C78.278 27.1337 77.4588 26.9472 76.7246 26.5693C75.9903 26.1915 75.365 25.6347 74.9074 24.9512L74.794 26.7175L71.4814 26.7512V26.7287ZM78.4583 23.8937C79.1049 23.8937 79.6835 23.7137 80.228 23.3875C80.7272 23.0275 81.1356 22.555 81.4532 21.9812C81.7482 21.4075 81.8843 20.7212 81.8843 19.9562C81.8843 19.2025 81.7482 18.5162 81.4532 17.9425C81.1553 17.3892 80.7368 16.9088 80.228 16.5362C79.697 16.2081 79.0839 16.0342 78.4583 16.0342C77.8326 16.0342 77.2195 16.2081 76.6885 16.5362C76.178 16.8962 75.781 17.3687 75.452 17.9425C75.152 18.5752 75.0044 19.2685 75.0209 19.9675C74.9766 20.6319 75.1071 21.2963 75.3994 21.8958C75.6917 22.4953 76.1359 23.0093 76.6885 23.3875C77.2217 23.7137 77.8003 23.8937 78.4583 23.8937ZM86.978 26.74V13.15H90.302L90.4154 14.9162C90.8331 14.2392 91.4256 13.6851 92.1317 13.3113C92.8377 12.9375 93.6317 12.7575 94.4314 12.79C95.3459 12.7743 96.2447 13.0264 97.0155 13.5146C97.7863 14.0028 98.3948 14.7056 98.765 15.535C99.162 16.39 99.3776 17.4475 99.3776 18.6287V26.7737H95.7587V19.1012C95.7587 18.1562 95.5431 17.4137 95.1121 16.8625C94.681 16.3225 94.091 16.03 93.3423 16.03C92.7978 16.03 92.3213 16.1425 91.9016 16.39C91.5045 16.6487 91.1755 16.975 90.9259 17.4362C90.6736 17.9025 90.5484 18.426 90.5629 18.955V26.74H86.978ZM101.181 26.74V7.56997H104.8V14.8825C105.29 14.2263 105.928 13.6925 106.663 13.3234C107.397 12.9544 108.208 12.7601 109.032 12.7562C109.887 12.7438 110.733 12.9224 111.509 13.2788C112.285 13.6352 112.97 14.1603 113.513 14.815C114.727 16.2128 115.371 18.0106 115.317 19.855C115.336 21.7415 114.668 23.5715 113.433 25.0075C112.863 25.6705 112.153 26.2015 111.353 26.563C110.554 26.9246 109.684 27.1078 108.805 27.1C107.978 27.1224 107.159 26.9359 106.425 26.5581C105.69 26.1802 105.065 25.6234 104.607 24.94L104.505 26.7062L101.181 26.74ZM108.192 23.8937C108.85 23.8937 109.429 23.7137 109.962 23.3875C110.473 23.0275 110.87 22.555 111.199 21.9812C111.482 21.4075 111.63 20.7212 111.63 19.9562C111.674 19.2918 111.544 18.6274 111.251 18.0279C110.959 17.4284 110.515 16.9144 109.962 16.5362C109.431 16.2081 108.818 16.0342 108.192 16.0342C107.567 16.0342 106.954 16.2081 106.423 16.5362C105.923 16.8962 105.515 17.3687 105.197 17.9425C104.881 18.5696 104.732 19.267 104.766 19.9675C104.722 20.6319 104.852 21.2963 105.145 21.8958C105.437 22.4953 105.881 23.0093 106.434 23.3875C106.967 23.7137 107.512 23.8937 108.192 23.8937Z" fill="#657795"/>
</g>
<defs>
<clipPath id="clip0_610_3053">
<rect width="115.714" height="36" fill="white"/>
</clipPath>
</defs>
</svg>
