<svg width="160" height="32" viewBox="0 0 160 32" fill="none" xmlns="http://www.w3.org/2000/svg">
<path d="M7.76586 16L4.14882 19.6139L0.534912 16L4.14882 12.3861L7.76586 16ZM16.5349 7.2247L22.728 13.4209L26.3419 9.80696L16.5349 0L6.72796 9.80696L10.3419 13.4209L16.5349 7.2247ZM28.9241 12.3861L25.3102 16L28.9241 19.6139L32.5349 16L28.9241 12.3861ZM16.5349 24.7753L10.3419 18.5823L6.72796 22.193L16.5349 32L26.3419 22.193L22.728 18.5823L16.5349 24.7753ZM16.5349 19.6139L20.1488 16L16.5349 12.3861L12.921 16L16.5349 19.6139ZM54.6748 19.9609V19.9109C54.6748 17.5537 53.4243 16.3751 51.3892 15.5998C52.6396 14.8964 53.6963 13.7929 53.6963 11.814V11.764C53.6963 9.00664 51.4892 7.2247 47.9034 7.2247H39.7627V24.7753H48.1097C52.0707 24.7753 54.6811 23.1716 54.6811 19.9609H54.6748ZM49.8604 12.458C49.8604 13.7616 48.7819 14.315 47.0781 14.315H43.5236V10.6104H47.3344C48.9632 10.6104 49.8667 11.2606 49.8667 12.4142L49.8604 12.458ZM50.8389 19.4795C50.8389 20.7831 49.8104 21.3834 48.1035 21.3834H43.5236V17.5287H47.9847C49.9667 17.5287 50.8452 18.2571 50.8452 19.4357L50.8389 19.4795ZM62.7874 24.7753V7.2247H58.914V24.7753H62.7874ZM83.5423 24.7753V7.2247H79.719V18.032L71.497 7.2247H67.9362V24.7753H71.7471V13.6178L80.2442 24.7753H83.5423ZM104.929 24.7753L97.3946 7.09965H93.8339L86.3153 24.7753H90.2512L91.8612 20.8394H99.2829L100.887 24.7753H104.929ZM97.9105 17.4287H93.2336L95.5658 11.739L97.9105 17.4287ZM123.333 24.7753V7.2247H119.51V18.032L111.284 7.2247H107.727V24.7753H111.535V13.6178L120.035 24.7753H123.333ZM143.263 21.9429L140.808 19.4607C139.43 20.7112 138.201 21.5147 136.194 21.5147C133.187 21.5147 131.105 19.0137 131.105 16V15.95C131.105 12.9426 133.237 10.4853 136.194 10.4853C137.948 10.4853 139.32 11.2356 140.683 12.4642L143.131 9.63189C141.502 8.02814 139.524 6.92458 136.213 6.92458C130.823 6.92458 127.062 11.0106 127.062 15.9906V16.0406C127.062 21.0801 130.898 25.066 136.063 25.066C139.442 25.0754 141.446 23.8718 143.25 21.9429H143.263ZM159.738 24.7753V21.3365H150.197V17.6444H158.472V14.2055H150.197V10.6604H159.6V7.22157H146.361V24.7722L159.738 24.7753Z" fill="#657795"/>
</svg>
