<svg width="135" height="24" viewBox="0 0 135 24" fill="none" xmlns="http://www.w3.org/2000/svg">
<path d="M27.5187 6.69963C22.6381 6.69963 18.8265 10.4049 18.8265 15.3638C18.8265 20.3228 22.5429 23.9944 27.5187 23.9944C32.4944 23.9944 36.2724 20.2612 36.2724 15.3358C36.2724 10.4384 32.556 6.69963 27.5187 6.69963ZM27.5523 20.4235C24.7705 20.4235 22.7388 18.2631 22.7388 15.3638C22.7388 12.4366 24.737 10.2761 27.5187 10.2761C30.3284 10.2761 32.3657 12.4702 32.3657 15.3694C32.3657 18.2631 30.3284 20.4235 27.5523 20.4235ZM37.3414 10.472H39.7649V23.681H43.6437V7.01866H37.3414V10.472ZM9.06532 10.2761C11.1026 10.2761 12.7202 11.5299 13.3302 13.3993H17.4385C16.6941 9.40858 13.3974 6.69963 9.0989 6.69963C4.21831 6.69963 0.406738 10.4049 0.406738 15.3638C0.406738 20.3284 4.12316 24 9.0989 24C13.2967 24 16.6605 21.291 17.4049 17.2668H13.3302C13.0663 18.1828 12.5098 18.9872 11.7458 19.5572C10.9817 20.1272 10.0521 20.4314 9.0989 20.4235C6.2892 20.4235 4.31345 18.2631 4.31345 15.3638C4.31345 12.4366 6.25002 10.2761 9.06532 10.2761ZM111.015 13.7575L108.172 13.3377C106.817 13.1418 105.849 12.694 105.849 11.6306C105.849 10.472 107.108 9.89552 108.815 9.89552C110.696 9.89552 111.894 10.6959 112.146 12.0168H115.896C115.476 8.66418 112.89 6.69963 108.916 6.69963C104.813 6.69963 102.099 8.79851 102.099 11.7593C102.099 14.5914 103.873 16.2369 107.461 16.7519L110.304 17.1716C111.698 17.3619 112.47 17.9104 112.47 18.9403C112.47 20.2612 111.116 20.8097 109.241 20.8097C106.946 20.8097 105.653 19.875 105.457 18.459H101.646C102.004 21.7108 104.556 24 109.202 24C113.438 24 116.254 22.0634 116.254 18.75C116.254 15.7836 114.216 14.2388 111.015 13.7575ZM41.7015 0.162315C41.3754 0.150845 41.0504 0.205969 40.7463 0.32432C40.4422 0.442671 40.1654 0.621762 39.9328 0.850663C39.7002 1.07957 39.5168 1.35347 39.3936 1.65565C39.2704 1.95783 39.2102 2.28195 39.2164 2.60821C39.2164 4.02985 40.2799 5.0597 41.7015 5.0597C42.0286 5.07199 42.3547 5.01728 42.6598 4.89894C42.965 4.78059 43.2427 4.60111 43.476 4.37153C43.7092 4.14194 43.8931 3.86709 44.0162 3.56386C44.1394 3.26063 44.1993 2.93542 44.1922 2.60821C44.1985 2.28146 44.1381 1.95687 44.0146 1.6543C43.891 1.35173 43.7071 1.07755 43.4739 0.848571C43.2407 0.619588 42.9633 0.440614 42.6585 0.322612C42.3537 0.204611 42.0281 0.150065 41.7015 0.162315ZM98.6064 12.7276C98.6064 9.11754 96.4123 6.70522 91.7556 6.70522C87.362 6.70522 84.9049 8.92724 84.4235 12.3414H88.2687C88.4646 11.0205 89.5 9.92351 91.694 9.92351C93.6642 9.92351 94.6325 10.791 94.6325 11.8545C94.6325 13.2425 92.8582 13.5951 90.6586 13.819C87.6866 14.1437 83.9982 15.1735 83.9982 19.041C83.9982 22.0354 86.237 23.9664 89.7855 23.9664C92.5672 23.9664 94.3135 22.8078 95.1866 20.972C95.3153 22.6119 96.5411 23.6754 98.2538 23.6754H100.515V20.2276H98.612L98.6064 12.7276ZM94.8004 16.9142C94.8004 19.1362 92.8582 20.7761 90.4963 20.7761C89.0411 20.7761 87.8097 20.1604 87.8097 18.8731C87.8097 17.2332 89.7855 16.7854 91.5933 16.5896C93.3396 16.4328 94.3079 16.0466 94.7948 15.3022L94.8004 16.9142ZM74.209 6.69963C72.0485 6.69963 70.2351 7.60634 68.9478 9.11754V0H65.0691V23.6754H68.875V21.4869C70.1735 23.0653 72.0093 24 74.209 24C78.8657 24 82.3862 20.3284 82.3862 15.3638C82.3862 10.4049 78.8041 6.69963 74.2146 6.69963H74.209ZM73.6325 20.4235C70.8508 20.4235 68.819 18.2631 68.819 15.3638C68.819 12.4701 70.8844 10.2761 73.6605 10.2761C76.4758 10.2761 78.4459 12.4366 78.4459 15.3694C78.4459 18.2631 76.4086 20.4235 73.6325 20.4235ZM55.7948 6.69963C53.2761 6.69963 51.625 7.72948 50.6511 9.17911V7.02425H46.806V23.6754H50.6847V14.625C50.6847 12.0784 52.3023 10.2761 54.6922 10.2761C56.9198 10.2761 58.3135 11.8545 58.3135 14.1381V23.6754H62.1866V13.8526C62.1866 9.66605 60.0261 6.69963 55.7948 6.69963ZM134.735 14.8153C134.735 10.0522 131.243 6.69963 126.563 6.69963C121.582 6.69963 117.933 10.4384 117.933 15.3638C117.933 20.5522 121.84 24 126.625 24C130.666 24 133.828 21.6157 134.64 18.2351H130.599C130.017 19.7127 128.595 20.5522 126.687 20.5522C124.196 20.5522 122.321 19.0075 121.907 16.2985H134.735V14.8153ZM122.131 13.528C122.746 11.2108 124.493 10.0858 126.496 10.0858C128.69 10.0858 130.375 11.3396 130.761 13.528H122.131Z" fill="#657795"/>
</svg>
