<svg width="108" height="32" viewBox="0 0 108 32" fill="none" xmlns="http://www.w3.org/2000/svg">
<g clip-path="url(#clip0_610_3082)">
<path d="M79.728 31.042L88.6236 21.1896L79.728 11.3359H89.1138L93.5196 16.1222L97.7621 11.3359H106.82L97.9671 21.149L106.942 31.042H97.5177L93.1518 26.2164L88.8272 31.042H79.728Z" fill="#657795"/>
<path d="M79.7279 6.91886H69.653V11.3362H79.7279V17.9936H69.653V24.1042H79.7279V31.0423H62.248V0H79.7279V6.91886Z" fill="#657795"/>
<path d="M54.8743 0V12.704H54.7932C53.1607 10.8544 51.1211 10.2117 48.7544 10.2117C43.9067 10.2117 40.255 13.4601 38.9731 17.755C37.5113 13.0226 33.7413 10.123 28.1511 10.123C23.6113 10.123 20.0263 12.1317 18.1555 15.4048V11.3367H8.7716V6.91977H19.0121V0H0.406616V31.0427H8.7716V17.9936H17.1092C16.8606 18.9522 16.728 19.9785 16.728 21.0615C16.728 27.5369 21.7464 32.0805 28.1511 32.0805C33.5368 32.0805 37.086 29.5881 38.9634 25.0441H31.7949C30.8252 26.4091 30.0896 26.8146 28.1511 26.8146C25.9032 26.8146 23.9651 24.8814 23.9651 22.5897H38.5617C39.1948 27.733 43.2593 32.1687 48.837 32.1687C51.243 32.1687 53.4459 31.0021 54.7932 29.0322H54.8743V31.0418H62.2482V0H54.8743ZM24.1979 18.0864C24.6631 16.1147 26.2144 14.8261 28.1511 14.8261C30.283 14.8261 31.7555 16.075 32.1427 18.0864C32.306 18.0864 24.1979 18.0864 24.1979 18.0864ZM50.3994 26.3159C47.6813 26.3159 45.9922 23.8194 45.9922 21.2128C45.9922 18.4265 47.4615 15.7472 50.3994 15.7472C53.4459 15.7472 54.6596 18.4265 54.6596 21.2128C54.6591 23.8551 53.3731 26.3159 50.3994 26.3159Z" fill="#657795"/>
</g>
<defs>
<clipPath id="clip0_610_3082">
<rect width="106.667" height="32" fill="white" transform="translate(0.406616)"/>
</clipPath>
</defs>
</svg>
