<svg width="109" height="36" viewBox="0 0 109 36" fill="none" xmlns="http://www.w3.org/2000/svg">
<g clip-path="url(#clip0_610_3066)">
<path d="M46.6738 18.4614C46.6738 23.4583 42.7072 27.1405 37.8393 27.1405C32.9713 27.1405 29.0047 23.4583 29.0047 18.4614C29.0047 13.4292 32.9713 9.78223 37.8393 9.78223C42.7072 9.78223 46.6738 13.4292 46.6738 18.4614ZM42.8065 18.4614C42.8065 15.3387 40.5075 13.2022 37.8393 13.2022C35.171 13.2022 32.8721 15.3387 32.8721 18.4614C32.8721 21.5527 35.171 23.7205 37.8393 23.7205C40.5075 23.7205 42.8065 21.5487 42.8065 18.4614Z" fill="#657795"/>
<path d="M65.7327 18.4614C65.7327 23.4583 61.766 27.1405 56.8981 27.1405C52.0302 27.1405 48.0635 23.4583 48.0635 18.4614C48.0635 13.4331 52.0302 9.78223 56.8981 9.78223C61.766 9.78223 65.7327 13.4292 65.7327 18.4614ZM61.8653 18.4614C61.8653 15.3387 59.5663 13.2022 56.8981 13.2022C54.2299 13.2022 51.9309 15.3387 51.9309 18.4614C51.9309 21.5527 54.2299 23.7205 56.8981 23.7205C59.5663 23.7205 61.8653 21.5487 61.8653 18.4614Z" fill="#657795"/>
<path d="M83.9973 10.3066V25.8883C83.9973 32.2979 80.1617 34.9157 75.6273 34.9157C71.3589 34.9157 68.79 32.1022 67.8211 29.8014L71.1882 28.42C71.7878 29.8327 73.2569 31.4996 75.6234 31.4996C78.5259 31.4996 80.3245 29.7348 80.3245 26.4127V25.1644H80.1895C79.324 26.217 77.6563 27.1366 75.5519 27.1366C71.1485 27.1366 67.1144 23.3566 67.1144 18.4927C67.1144 13.5935 71.1485 9.78223 75.5519 9.78223C77.6523 9.78223 79.32 10.7018 80.1895 11.7231H80.3245V10.3105H83.9973V10.3066ZM80.5985 18.4927C80.5985 15.4366 78.5298 13.2022 75.8973 13.2022C73.2291 13.2022 70.9936 15.4366 70.9936 18.4927C70.9936 21.5174 73.2291 23.7205 75.8973 23.7205C78.5298 23.7205 80.5985 21.5174 80.5985 18.4927Z" fill="#657795"/>
<path d="M90.0525 1.17389V26.6087H86.2805V1.17389H90.0525Z" fill="#657795"/>
<path d="M104.752 21.3179L107.753 23.2901C106.785 24.7027 104.45 27.1366 100.416 27.1366C95.4129 27.1366 91.6766 23.3253 91.6766 18.4575C91.6766 13.2961 95.4447 9.77832 99.983 9.77832C104.553 9.77832 106.789 13.3627 107.519 15.2996L107.92 16.2857L96.1475 21.0909C97.0488 22.8322 98.4504 23.7205 100.416 23.7205C102.385 23.7205 103.751 22.7657 104.752 21.3179ZM95.5122 18.1953L103.382 14.9748C102.949 13.8909 101.647 13.1357 100.114 13.1357C98.1486 13.1357 95.4129 14.8457 95.5122 18.1953Z" fill="#657795"/>
<path d="M14.7266 16.2036V12.5214H27.3174C27.4404 13.1632 27.504 13.9223 27.504 14.744C27.504 17.5066 26.7377 20.9227 24.2679 23.3566C21.8657 25.8219 18.7965 27.1366 14.7306 27.1366C7.19442 27.1366 0.857361 21.0871 0.857361 13.6601C0.857361 6.23316 7.19442 0.183594 14.7306 0.183594C18.8997 0.183594 21.8697 1.79577 24.1012 3.89707L21.4647 6.49533C19.8646 5.0162 17.6966 3.86577 14.7266 3.86577C9.22339 3.86577 4.91927 8.23664 4.91927 13.6601C4.91927 19.0836 9.22339 23.4545 14.7266 23.4545C18.2962 23.4545 20.3291 22.0419 21.6315 20.7584C22.6877 19.7175 23.3825 18.2305 23.6565 16.1997L14.7266 16.2036Z" fill="#657795"/>
</g>
<defs>
<clipPath id="clip0_610_3066">
<rect width="108" height="36" fill="white" transform="translate(0.714294)"/>
</clipPath>
</defs>
</svg>
