<svg width="113" height="32" viewBox="0 0 113 32" fill="none" xmlns="http://www.w3.org/2000/svg">
<g clip-path="url(#clip0_610_3055)">
<path d="M12.8433 5.297V14.3233H4.61891V5.297H0.714294V26.8437H4.61891V18.1105H12.8433V26.8437H16.7479V5.297H12.8433Z" fill="#657795"/>
<path d="M29.2441 19.8783C29.2441 20.7419 28.9038 21.57 28.298 22.1806C27.6922 22.7912 26.8706 23.1343 26.0139 23.1343C25.1572 23.1343 24.3355 22.7912 23.7298 22.1806C23.124 21.57 22.7836 20.7419 22.7836 19.8783V10.6495H19.0799V19.8783C19.0799 21.7302 19.8097 23.5062 21.1089 24.8156C22.408 26.1251 24.17 26.8607 26.0072 26.8607C27.8444 26.8607 29.6064 26.1251 30.9055 24.8156C32.2047 23.5062 32.9345 21.7302 32.9345 19.8783V10.6495H29.2441V19.8783Z" fill="#657795"/>
<path d="M56.6858 11.6006C56.6858 9.70893 57.9274 9.10923 59.2876 9.10923C60.3838 9.10923 61.832 9.94997 62.779 10.97L65.2048 8.08916C63.9938 6.43855 61.5374 5.297 59.5267 5.297C55.5092 5.297 52.6032 7.6688 52.6032 11.6006C52.6032 18.8953 61.4494 16.5814 61.4494 20.6636C61.4494 21.9227 60.2365 23.0354 58.8476 23.0354C56.6571 23.0354 55.9473 21.9555 54.941 20.814L52.2493 23.6351C53.9711 25.7658 56.0946 26.8476 58.639 26.8476C62.4556 26.8476 65.5262 24.4469 65.5262 20.6944C65.5262 12.5956 56.68 15.112 56.68 11.6006" fill="#657795"/>
<path d="M111.411 23.402C109.223 23.402 108.601 22.4475 108.601 20.9859V14.5165H112.003V11.2384H108.601V6.91321L104.846 8.61203V21.79C104.846 25.1606 107.153 26.8595 110.317 26.8595C110.813 26.8686 111.309 26.8285 111.798 26.7399L112.714 23.3403C112.301 23.3692 111.827 23.3982 111.411 23.3982" fill="#657795"/>
<path d="M43.3417 10.7576C41.5071 10.7576 40.2272 11.2937 38.9895 12.5182V5.4259H35.28V18.5711C35.28 23.4921 38.8096 26.8627 42.7755 26.8627C47.1756 26.8627 51.0458 23.4323 51.0458 18.8121C51.0458 14.2498 47.4836 10.7596 43.3417 10.7596V10.7576ZM43.3188 23.1006C42.4864 23.1006 41.6726 22.8518 40.9805 22.3857C40.2884 21.9195 39.7489 21.257 39.4304 20.4818C39.1118 19.7066 39.0285 18.8537 39.1908 18.0308C39.3532 17.2078 39.7541 16.452 40.3427 15.8587C40.9313 15.2654 41.6813 14.8613 42.4977 14.6977C43.3141 14.534 44.1604 14.618 44.9294 14.9391C45.6985 15.2601 46.3558 15.8039 46.8183 16.5015C47.2807 17.1992 47.5276 18.0193 47.5276 18.8584C47.5276 19.9835 47.0842 21.0625 46.2948 21.8581C45.5055 22.6537 44.435 23.1006 43.3188 23.1006Z" fill="#657795"/>
<path d="M83.6198 18.6162C83.6198 13.9883 79.7573 10.5656 75.3495 10.5656C71.3837 10.5656 67.8541 13.9362 67.8541 18.8572V32.0101H71.5635V24.9082C72.7994 26.1307 74.0812 26.6687 75.9139 26.6687C80.0557 26.6687 83.6179 23.1804 83.6179 18.6162H83.6198ZM80.1074 18.5699C80.1074 19.4089 79.8606 20.2291 79.3981 20.9267C78.9356 21.6244 78.2783 22.1681 77.5092 22.4892C76.7402 22.8103 75.8939 22.8943 75.0775 22.7306C74.2611 22.5669 73.5111 22.1629 72.9225 21.5696C72.3339 20.9763 71.9331 20.2204 71.7707 19.3975C71.6083 18.5746 71.6916 17.7216 72.0102 16.9465C72.3287 16.1713 72.8682 15.5087 73.5603 15.0426C74.2525 14.5764 75.0662 14.3276 75.8986 14.3276C77.0148 14.3276 78.0854 14.7746 78.8747 15.5702C79.664 16.3657 80.1074 17.4448 80.1074 18.5699Z" fill="#657795"/>
<path d="M95.6037 10.3838V6.62751C96.0962 6.39556 96.5132 6.02739 96.8061 5.56585C97.0991 5.1043 97.256 4.56838 97.2585 4.02046V3.93369C97.2585 3.16657 96.9562 2.43086 96.418 1.88843C95.8799 1.34599 95.1499 1.04125 94.3889 1.04125H94.3028C93.5417 1.04125 92.8118 1.34599 92.2736 1.88843C91.7355 2.43086 91.4332 3.16657 91.4332 3.93369V4.02046C91.4357 4.56838 91.5926 5.1043 91.8855 5.56585C92.1785 6.02739 92.5955 6.39556 93.088 6.62751V10.3838C91.6725 10.6021 90.3393 11.1935 89.2235 12.0981L79.0038 4.07445C79.0761 3.80987 79.1147 3.53706 79.1186 3.26264C79.1197 2.61803 78.9312 1.98756 78.5768 1.45097C78.2224 0.914387 77.718 0.495796 77.1276 0.248144C76.5371 0.000492028 75.8871 -0.0650939 75.2596 0.0596818C74.6322 0.184458 74.0556 0.493989 73.6027 0.949125C73.1498 1.40426 72.841 1.98455 72.7154 2.6166C72.5897 3.24866 72.6529 3.90407 72.8968 4.49994C73.1408 5.09582 73.5546 5.60538 74.0859 5.96418C74.6172 6.32299 75.2421 6.51491 75.8816 6.51567C76.4409 6.51315 76.9897 6.36289 77.4733 6.07988L87.5381 13.9724C86.6337 15.3491 86.1619 16.9686 86.1841 18.6196C86.2063 20.2706 86.7214 21.8766 87.6624 23.2282L84.6015 26.3134C84.354 26.2338 84.0961 26.1915 83.8363 26.1881C83.3112 26.1885 82.7981 26.3457 82.3617 26.64C81.9254 26.9342 81.5853 27.3522 81.3846 27.8412C81.1838 28.3302 81.1314 28.8682 81.2339 29.3872C81.3364 29.9062 81.5893 30.3829 81.9606 30.7571C82.3318 31.1313 82.8048 31.3862 83.3197 31.4895C83.8346 31.5929 84.3683 31.54 84.8535 31.3377C85.3386 31.1353 85.7533 30.7926 86.0452 30.3527C86.3372 29.9129 86.4932 29.3957 86.4936 28.8665C86.4903 28.6046 86.4484 28.3447 86.3692 28.0952L89.3976 25.0427C90.3851 25.8086 91.5334 26.3366 92.7546 26.5862C93.9758 26.8358 95.2375 26.8003 96.443 26.4826C97.6485 26.1648 98.7659 25.5732 99.7095 24.7529C100.653 23.9327 101.398 22.9057 101.887 21.7505C102.376 20.5954 102.596 19.3427 102.531 18.0885C102.466 16.8343 102.116 15.6118 101.51 14.5147C100.903 13.4175 100.056 12.4748 99.032 11.7588C98.0083 11.0428 96.8356 10.5725 95.6037 10.3838ZM94.3487 22.7365C93.5203 22.7357 92.7107 22.4874 92.0223 22.023C91.3338 21.5586 90.7974 20.8989 90.4809 20.1273C90.1643 19.3557 90.0818 18.5069 90.2437 17.688C90.4056 16.8691 90.8048 16.117 91.3907 15.5267C91.9766 14.9365 92.7229 14.5345 93.5354 14.3716C94.3479 14.2088 95.19 14.2924 95.9554 14.6118C96.7208 14.9313 97.375 15.4722 97.8354 16.1664C98.2959 16.8605 98.5418 17.6766 98.5422 18.5116C98.5422 19.6316 98.1008 20.7057 97.3151 21.4977C96.5294 22.2896 95.4637 22.7345 94.3525 22.7345" fill="#657795"/>
</g>
<defs>
<clipPath id="clip0_610_3055">
<rect width="112" height="32" fill="white" transform="translate(0.714294)"/>
</clipPath>
</defs>
</svg>
