<svg width="161" height="34" viewBox="0 0 161 34" fill="none" xmlns="http://www.w3.org/2000/svg">
<g clip-path="url(#clip0_610_3073)">
<path d="M57.0282 19.5829L56.0773 22.2713H55.998C55.8396 21.6651 55.549 20.7426 55.0736 19.6357L49.9757 6.85271H44.9836V27.2264H48.2853V14.6543C48.2853 13.8636 48.2853 12.9674 48.2588 11.8605C48.2324 11.307 48.1796 10.8853 48.1532 10.569H48.2324C48.3909 11.3597 48.5758 11.9395 48.7079 12.3085L54.8358 27.1736H57.1602L63.2354 12.1767C63.3675 11.8341 63.4995 11.1488 63.6316 10.569H63.7108C63.6316 12.0713 63.5788 13.4155 63.5524 14.2326V27.1473H67.0654V6.79999H62.2581L57.0282 19.5829ZM70.3935 12.5457H73.8273V27.1473H70.3935V12.5457ZM72.1368 6.37829C71.5557 6.37829 71.0802 6.58914 70.684 6.95813C70.2878 7.32713 70.0765 7.80154 70.0765 8.38139C70.0765 8.93488 70.2878 9.4093 70.684 9.77829C71.0802 10.1473 71.5557 10.3318 72.1368 10.3318C72.7179 10.3318 73.2197 10.1209 73.5895 9.77829C73.9857 9.4093 74.1971 8.93488 74.1971 8.38139C74.1971 7.8279 73.9857 7.35348 73.5895 6.95813C73.2462 6.58914 72.7443 6.37829 72.1368 6.37829ZM86.004 12.4139C85.37 12.2822 84.7097 12.2031 84.0758 12.2031C82.5174 12.2031 81.091 12.5457 79.9024 13.231C78.7138 13.9163 77.7629 14.8651 77.1554 16.0512C76.5215 17.2636 76.2045 18.6605 76.2045 20.2682C76.2045 21.6651 76.5215 22.9039 77.129 24.0372C77.7365 25.1442 78.5817 26.0403 79.7175 26.6465C80.8005 27.2527 82.0683 27.569 83.4947 27.569C85.1323 27.569 86.5322 27.2264 87.6416 26.5938L87.668 26.5674V23.4046L87.5359 23.5101C87.0341 23.8791 86.453 24.1953 85.8719 24.3798C85.2644 24.5907 84.7097 24.6961 84.2342 24.6961C82.8607 24.6961 81.7778 24.3008 81.0118 23.431C80.2194 22.5876 79.8232 21.4279 79.8232 19.9783C79.8232 18.476 80.2194 17.2899 81.0382 16.4201C81.857 15.5504 82.94 15.1023 84.2607 15.1023C85.37 15.1023 86.5058 15.4713 87.5359 16.2093L87.668 16.3147V12.9674L87.6416 12.9411C87.1926 12.7566 86.6907 12.5457 86.004 12.4139ZM97.3354 12.3085C96.4902 12.3085 95.6978 12.5721 95.011 13.1256C94.4299 13.6 94.0337 14.2853 93.6903 15.1023H93.6639V12.5457H90.2301V27.1473H93.6639V19.6884C93.6639 18.4233 93.9281 17.369 94.5092 16.6046C95.0903 15.8139 95.8298 15.4186 96.7279 15.4186C97.0449 15.4186 97.3618 15.4977 97.758 15.5504C98.1278 15.6558 98.392 15.7612 98.5769 15.893L98.7089 15.9984V12.5721L98.6297 12.5457C98.392 12.3876 97.9165 12.3085 97.3354 12.3085ZM106.686 12.2295C104.282 12.2295 102.354 12.9411 101.007 14.338C99.6334 15.7349 98.9731 17.6589 98.9731 20.0837C98.9731 22.3504 99.6598 24.1953 100.98 25.5395C102.301 26.8574 104.097 27.5426 106.342 27.5426C108.693 27.5426 110.569 26.831 111.916 25.4077C113.289 23.9845 113.95 22.0868 113.95 19.7411C113.95 17.4217 113.316 15.5767 112.021 14.2326C110.78 12.8884 108.957 12.2295 106.686 12.2295ZM109.433 23.4574C108.799 24.2744 107.795 24.6698 106.554 24.6698C105.312 24.6698 104.309 24.2744 103.595 23.4046C102.882 22.5876 102.539 21.4015 102.539 19.8992C102.539 18.3442 102.909 17.1581 103.595 16.3147C104.309 15.4713 105.286 15.0496 106.527 15.0496C107.742 15.0496 108.693 15.445 109.38 16.262C110.067 17.0791 110.437 18.2651 110.437 19.8201C110.384 21.4015 110.093 22.6403 109.433 23.4574ZM121.61 18.6077C120.527 18.1597 119.84 17.817 119.523 17.5271C119.259 17.2636 119.127 16.8946 119.127 16.4201C119.127 16.0248 119.285 15.6295 119.681 15.3659C120.078 15.1023 120.527 14.9705 121.187 14.9705C121.768 14.9705 122.376 15.076 122.957 15.2341C123.538 15.3922 124.066 15.6295 124.489 15.9457L124.621 16.0512V12.8357L124.541 12.8093C124.145 12.6512 123.617 12.493 122.983 12.3612C122.349 12.2558 121.768 12.2031 121.293 12.2031C119.655 12.2031 118.308 12.5984 117.251 13.4682C116.195 14.2853 115.693 15.3922 115.693 16.6837C115.693 17.369 115.799 17.9752 116.036 18.476C116.274 18.9767 116.617 19.4512 117.093 19.8465C117.568 20.2155 118.255 20.6372 119.206 21.0326C119.998 21.3752 120.606 21.6388 120.976 21.8496C121.345 22.0605 121.583 22.2977 121.768 22.4822C121.9 22.693 121.979 22.9566 121.979 23.2992C121.979 24.2744 121.24 24.7488 119.734 24.7488C119.153 24.7488 118.546 24.6434 117.832 24.4062C117.119 24.169 116.459 23.8264 115.904 23.431L115.772 23.3256V26.6729L115.851 26.6992C116.353 26.9364 116.961 27.0946 117.7 27.2791C118.44 27.4108 119.1 27.5163 119.681 27.5163C121.451 27.5163 122.904 27.1209 123.934 26.2512C124.991 25.4077 125.545 24.3271 125.545 22.9302C125.545 21.955 125.281 21.0853 124.7 20.4264C123.934 19.7938 122.983 19.1349 121.61 18.6077ZM134.605 12.2295C132.201 12.2295 130.273 12.9411 128.926 14.338C127.579 15.7349 126.892 17.6589 126.892 20.0837C126.892 22.3504 127.579 24.1953 128.9 25.5395C130.22 26.8574 132.017 27.5426 134.262 27.5426C136.613 27.5426 138.488 26.831 139.835 25.4077C141.208 23.9845 141.869 22.0868 141.869 19.7411C141.869 17.4217 141.235 15.5767 139.941 14.2326C138.699 12.8884 136.877 12.2295 134.605 12.2295ZM137.326 23.4574C136.692 24.2744 135.688 24.6698 134.447 24.6698C133.179 24.6698 132.201 24.2744 131.488 23.4046C130.775 22.5876 130.432 21.4015 130.432 19.8992C130.432 18.3442 130.802 17.1581 131.488 16.3147C132.201 15.4713 133.179 15.0496 134.42 15.0496C135.609 15.0496 136.586 15.445 137.273 16.262C137.96 17.0791 138.329 18.2651 138.329 19.8201C138.329 21.4015 137.986 22.6403 137.326 23.4574ZM160.226 15.3659V12.5457H156.766V8.22325L156.66 8.24961L153.385 9.2248L153.306 9.25116V12.5457H148.129V10.7008C148.129 9.85736 148.34 9.19844 148.71 8.77674C149.08 8.35503 149.634 8.14418 150.321 8.14418C150.797 8.14418 151.299 8.24961 151.853 8.48682L151.985 8.56589V5.58759L151.906 5.56123C151.431 5.40309 150.797 5.29767 149.978 5.29767C148.948 5.29767 148.05 5.53488 147.231 5.93023C146.412 6.37829 145.804 6.98449 145.355 7.80154C144.906 8.59224 144.669 9.48837 144.669 10.5163V12.5457H142.265V15.3395H144.669V27.1473H148.129V15.3659H153.306V22.8775C153.306 25.9612 154.759 27.5163 157.664 27.5163C158.14 27.5163 158.641 27.4372 159.117 27.3581C159.619 27.2527 159.989 27.1209 160.2 27.0155L160.226 26.9891V24.169L160.094 24.2744C159.883 24.4062 159.698 24.5116 159.381 24.5907C159.117 24.6698 158.879 24.6961 158.694 24.6961C158.008 24.6961 157.532 24.538 157.189 24.1426C156.872 23.7736 156.713 23.1674 156.713 22.2713V15.3659H160.226Z" fill="#657795"/>
<path d="M0.714294 0H16.9059V16.1566H0.714294V0Z" fill="#657795"/>
<path d="M18.5962 0H34.7878V16.1566H18.5962V0Z" fill="#657795"/>
<path d="M0.714294 17.8438H16.9059V34.0003H0.714294V17.8438Z" fill="#657795"/>
<path d="M18.5962 17.8438H34.7878V34.0003H18.5962V17.8438Z" fill="#657795"/>
</g>
<defs>
<clipPath id="clip0_610_3073">
<rect width="159.538" height="34" fill="white" transform="translate(0.714294)"/>
</clipPath>
</defs>
</svg>
