<svg width="129" height="29" viewBox="0 0 129 29" fill="none" xmlns="http://www.w3.org/2000/svg">
<path fill-rule="evenodd" clip-rule="evenodd" d="M0.902721 0.627623C4.10002 4.54732 7.61058 9.47165 8.1784 10.2681C8.20868 10.3106 8.23058 10.3413 8.24364 10.3595C8.54632 10.7821 8.7962 11.0963 8.98596 11.3348C9.40722 11.8644 9.53224 12.0216 9.28088 12.1659C9.07812 12.2823 8.86896 12.3207 8.66025 12.3207C8.42418 12.3207 8.15822 12.2059 7.96457 12.0203C7.82769 11.8892 6.89108 10.5152 5.61569 8.51635C4.63985 6.98688 3.82318 5.71812 3.8009 5.69688C3.7494 5.64775 3.75028 5.64941 5.5162 8.84093C6.62504 10.845 7.38353 12.326 7.38353 12.4207C7.38353 12.6134 7.33146 12.7147 7.09609 12.9799C6.70372 13.4221 6.5283 13.9189 6.40169 14.9471C6.25974 16.0996 5.8606 16.9139 4.75444 18.3072C4.10693 19.1229 4.00098 19.2724 3.8376 19.6012C3.63181 20.0152 3.57521 20.2471 3.55228 20.7699C3.52804 21.3227 3.57525 21.6797 3.74244 22.2081C3.88881 22.6708 4.04158 22.9764 4.43216 23.5875C4.76922 24.1147 4.9633 24.5065 4.9633 24.6599C4.9633 24.7819 4.98636 24.782 5.50866 24.6629C6.75861 24.3777 7.77356 23.8764 8.34438 23.2619C8.69766 22.8815 8.78061 22.6715 8.78329 22.1503C8.78506 21.8093 8.77318 21.738 8.68196 21.5419C8.53344 21.2225 8.26306 20.9572 7.66716 20.5457C6.88634 20.0065 6.55285 19.5725 6.46073 18.9756C6.38517 18.4859 6.47284 18.1403 6.90478 17.2259C7.35186 16.2793 7.46266 15.876 7.53761 14.9219C7.58601 14.3055 7.65305 14.0624 7.82838 13.8673C8.01125 13.6639 8.17586 13.5949 8.6284 13.5324C9.36618 13.4307 9.83597 13.2379 10.2221 12.8784C10.5571 12.5666 10.6973 12.2662 10.7188 11.8139L10.7351 11.4711L10.5479 11.2506C9.87001 10.4522 0.448716 0 0.406996 0C0.398084 0 0.621169 0.282449 0.902721 0.627623ZM5.34386 21.3953C5.49714 21.1211 5.4157 20.7687 5.1593 20.5964C4.91705 20.4337 4.54073 20.5104 4.54073 20.7224C4.54073 20.7871 4.57614 20.8341 4.65598 20.8757C4.7904 20.9456 4.80016 21.0241 4.6944 21.1847C4.58729 21.3473 4.59593 21.4903 4.71878 21.5873C4.91678 21.744 5.19706 21.6579 5.34386 21.3953ZM9.95741 6.44327C9.65496 6.39588 9.64221 6.39032 9.78453 6.36823C10.0573 6.32585 10.7013 6.3836 11.1452 6.4902C12.1813 6.73896 13.1241 7.37624 14.1305 8.50805L14.3978 8.80873L14.7803 8.74663C16.3917 8.48507 18.0309 8.69293 19.4019 9.33268C19.7791 9.50869 20.3738 9.85904 20.4481 9.94907C20.4717 9.97776 20.5153 10.1625 20.5446 10.3595C20.6465 11.0414 20.5955 11.5641 20.389 11.9544C20.2767 12.1668 20.2705 12.2342 20.3459 12.416C20.4062 12.561 20.5743 12.6684 20.7409 12.6682C21.0815 12.6677 21.4482 12.1114 21.6182 11.3373L21.6857 11.0298L21.8194 11.1828C22.5527 12.0221 23.1289 13.1667 23.2278 13.9815L23.2535 14.1939L23.1303 14.0008C22.9181 13.6685 22.705 13.4423 22.4319 13.2598C21.9399 12.9309 21.4195 12.819 20.0417 12.7457C18.7971 12.6794 18.0929 12.5721 17.3945 12.342C16.2061 11.9507 15.6071 11.4295 14.1955 9.55893C13.5686 8.72808 13.1811 8.26839 12.7956 7.89819C11.9197 7.05703 11.0591 6.61588 9.95741 6.44327ZM20.7287 8.29836C20.7601 7.74161 20.8349 7.37439 20.9851 7.03903C21.0446 6.90628 21.1003 6.79763 21.1089 6.79763C21.1175 6.79763 21.0917 6.89561 21.0514 7.01535C20.9422 7.34083 20.9242 7.78599 20.9995 8.30392C21.095 8.96109 21.1494 9.05592 21.837 9.7658C22.1595 10.0988 22.5347 10.5187 22.6707 10.699L22.9181 11.0268L22.6707 10.7926C22.3683 10.5061 21.6729 9.94729 21.5193 9.86741C21.4162 9.81385 21.4009 9.81477 21.3374 9.87865C21.2789 9.93752 21.2665 10.026 21.2583 10.4441C21.2457 11.0958 21.1578 11.5141 20.9455 11.9323C20.8307 12.1585 20.8126 12.1103 20.9165 11.8549C20.9941 11.6643 21.0019 11.5805 21.0014 10.9496C21.0002 9.68203 20.8511 9.37729 19.9774 8.85527C19.7562 8.72303 19.3914 8.53231 19.167 8.43141C18.9427 8.33053 18.7645 8.24267 18.7709 8.23611C18.7957 8.21123 19.6478 8.46244 19.9907 8.59568C20.5009 8.79389 20.585 8.81959 20.647 8.79567C20.6885 8.77964 20.7086 8.65748 20.7287 8.29836ZM9.63325 7.32523C9.55101 8.30385 9.9309 9.61297 10.5449 10.4668C11.0209 11.1287 11.7587 11.643 12.3034 11.6927C12.6601 11.7252 12.7672 11.6124 12.6059 11.3745C12.3819 11.044 12.1064 10.5352 12.0334 10.3173C11.9882 10.182 11.8897 9.78225 11.8147 9.42901C11.5586 8.22301 11.3068 7.75336 10.7253 7.39664C10.5134 7.26663 10.0609 7.09649 9.79845 7.04815L9.65869 7.02237L9.63325 7.32523ZM19.9841 16.8215C17.1146 15.6545 16.1039 14.6416 16.1039 12.9325C16.1039 12.681 16.1126 12.4752 16.123 12.4752C16.1335 12.4752 16.2445 12.5582 16.3697 12.6597C16.9515 13.1311 17.6031 13.3324 19.407 13.5981C20.4683 13.7547 21.0657 13.8809 21.6167 14.0656C23.3681 14.6523 24.4517 15.8428 24.7101 17.4645C24.7851 17.9357 24.7411 18.8193 24.6194 19.2851C24.5233 19.6529 24.2299 20.3159 24.1522 20.3413C24.1306 20.3484 24.1094 20.2649 24.1039 20.1513C24.0745 19.5424 23.7698 18.9496 23.2582 18.5055C22.6765 18.0005 21.8949 17.5987 19.9841 16.8215ZM17.831 16.6931C17.8713 16.8143 17.9337 17.0901 17.9695 17.3063C18.1994 18.6879 17.4814 19.8041 16.0847 20.2367C15.9369 20.2824 15.3545 20.3976 14.7905 20.4924C13.6488 20.6844 13.1392 20.8204 12.6273 21.0695C12.2643 21.2461 11.8248 21.5107 11.8509 21.5369C11.8593 21.5455 11.9422 21.5255 12.035 21.4925C12.6805 21.2636 13.399 21.1451 14.4905 21.0877C14.9237 21.0651 15.4163 21.0288 15.5854 21.0073C16.5578 20.8836 17.2318 20.5852 17.7559 20.0464C18.0475 19.7465 18.2214 19.4672 18.3615 19.0733C18.4503 18.8235 18.4623 18.7307 18.463 18.288C18.4638 17.8369 18.453 17.7544 18.3567 17.4769C18.2307 17.1132 18.0821 16.8403 17.8938 16.6268L17.7578 16.4727L17.831 16.6931ZM19.285 19.6659C18.9037 18.838 18.8162 18.0388 19.025 17.2935C19.0474 17.2137 19.0833 17.1485 19.105 17.1485C19.1266 17.1485 19.2165 17.1977 19.3049 17.2577C19.4805 17.3772 19.8329 17.5784 20.7715 18.0953C21.943 18.7404 22.6109 19.2399 23.065 19.8107C23.4627 20.3104 23.7089 20.8796 23.8273 21.5737C23.8945 21.9669 23.8551 22.9131 23.7553 23.3089C23.4403 24.5573 22.7083 25.5379 21.6643 26.1101C21.5114 26.1939 21.3741 26.2627 21.3591 26.2631C21.3443 26.2633 21.4001 26.1203 21.483 25.9449C21.8342 25.2033 21.8742 24.482 21.6087 23.6792C21.4461 23.1876 21.1146 22.5877 20.4453 21.5739C19.6671 20.3952 19.4763 20.0815 19.285 19.6659ZM12.1037 22.3811C10.8969 22.5791 9.57198 23.2241 8.50716 24.1323L8.19014 24.4027L8.46874 24.4467C9.92261 24.6759 10.3141 24.8792 11.3226 25.9285C11.9029 26.5323 12.0989 26.6667 12.5803 26.7908C13.2873 26.9731 13.9842 26.6381 14.2233 26.0011C14.3301 25.7164 14.3158 25.2451 14.1933 25.0084C13.9018 24.4448 13.0526 24.2627 12.642 24.6755C12.3 25.0193 12.3996 25.5373 12.825 25.6264C12.9224 25.6469 12.9196 25.6425 12.8002 25.588C12.614 25.5029 12.5332 25.3851 12.5321 25.1975C12.5298 24.7576 13.0281 24.5107 13.4917 24.7219C13.8311 24.8767 13.9659 25.0788 13.9659 25.4332C13.9659 25.9789 13.5061 26.3901 12.971 26.3229C12.6849 26.2869 12.3351 26.1021 12.1475 25.888C11.6755 25.3489 11.8594 24.4983 12.5184 24.1719C13.0201 23.9235 13.6869 23.9847 14.2041 24.3267C14.7982 24.7197 15.0509 25.0789 15.5626 26.2579C15.7293 26.6417 15.9437 27.0739 16.039 27.2181C16.5238 27.9511 17.1046 28.3105 17.8042 28.3105C18.1901 28.3105 18.4803 28.2393 18.8455 28.0552C19.1169 27.9183 19.5015 27.6581 19.4738 27.6303C19.4659 27.6224 19.3534 27.6577 19.2237 27.7088C18.4598 28.0097 17.6833 27.9891 17.2323 27.6556C16.9483 27.4457 16.7193 27.0276 16.6015 26.5047C16.5811 26.4141 16.5139 26.0144 16.4521 25.6163C16.2953 24.6072 16.1447 24.1536 15.7937 23.6331C15.4345 23.1005 14.7439 22.6536 13.9719 22.454C13.4903 22.3295 12.6238 22.2956 12.1037 22.3811ZM10.4135 14.5793C10.5177 14.1905 10.8544 13.8197 11.2007 13.7123C11.421 13.644 11.8762 13.6876 12.0903 13.7975C12.5051 14.0105 12.8062 14.4957 12.7409 14.846C12.6612 15.2731 11.9755 15.6148 11.1867 15.6204C10.7838 15.6232 10.6351 15.5685 10.4812 15.3611C10.386 15.2325 10.3499 14.8165 10.4135 14.5793ZM11.9844 13.9497C12.1912 14.0773 12.2444 14.266 12.1228 14.4405C12.039 14.5608 11.7796 14.6751 11.5901 14.6751C11.3053 14.6751 10.9946 14.4708 10.9946 14.2837C10.9946 13.9079 11.5904 13.7067 11.9844 13.9497ZM73.811 15.026C73.1675 12.8857 74.2287 11.1103 76.493 10.5398C77.1423 10.3761 80.0827 10.45 80.5865 10.6427C80.7715 10.7133 80.8521 10.9844 80.8538 11.5415C80.855 11.9802 80.9029 12.5131 80.9599 12.7256C81.0466 13.0477 80.9959 13.111 80.6561 13.1059C80.3486 13.1011 80.1627 12.9209 79.9031 12.3758C79.4886 11.5053 78.9866 11.2283 77.8169 11.2251C76.3235 11.2208 75.2309 12.2262 75.4087 13.4411C75.5246 14.2316 76.3145 15.0095 78.087 16.0788C79.7735 17.096 80.7579 17.9325 81.1501 18.682C82.1989 20.6857 81.3033 22.83 78.9666 23.9104C77.7671 24.4649 75.7569 24.5223 74.3435 24.0423L73.4385 23.7348V22.2887C73.4385 20.9789 73.4697 20.8423 73.7682 20.8423C74.0179 20.8423 74.1258 21.0073 74.2134 21.5244C74.4315 22.8101 75.4086 23.5907 76.8002 23.5907C78.1634 23.5907 79.1163 22.8459 79.4814 21.4953C79.6369 20.92 79.6101 20.7079 79.3017 20.0732C78.9321 19.3123 78.2957 18.8073 76.1342 17.5604C74.9349 16.8684 74.0867 15.9432 73.811 15.026ZM31.4403 11.3943C31.1454 11.3943 31.0303 11.2979 31.0303 11.0507C31.0303 10.7235 31.1454 10.7071 33.4565 10.7071C35.6015 10.7071 35.8761 10.7394 35.8269 10.9856C35.7961 11.1388 35.4997 11.3513 35.1678 11.458L34.5643 11.6519L34.5129 16.0324C34.4783 18.9553 34.5269 20.6415 34.6585 21.0999C35.0498 22.4632 36.2435 23.2472 37.9278 23.2472C39.1003 23.2472 39.7853 22.9731 40.6458 22.1589C41.5714 21.2837 41.719 20.4521 41.7161 16.13C41.7133 11.8667 41.639 11.5149 40.7234 11.4264C40.3067 11.386 40.1671 11.289 40.1671 11.0399C40.1671 10.7293 40.3046 10.7071 42.2358 10.7071C44.1895 10.7071 44.3045 10.7262 44.3045 11.0507C44.3045 11.2623 44.1886 11.3953 44.0027 11.3968C43.2043 11.4039 43.1897 11.4798 43.0822 16.1547C42.9707 21.0093 42.8666 21.5841 41.8827 22.7733C41.599 23.1164 40.9223 23.6145 40.3791 23.8804C39.4939 24.3136 39.2123 24.3633 37.6674 24.3605C36.2433 24.3576 35.7937 24.2888 35.0815 23.9647C34.0421 23.4915 33.3661 22.8791 32.8677 21.9588C32.5198 21.3164 32.4901 20.9688 32.4095 16.6164C32.3173 11.6344 32.2726 11.3943 31.4403 11.3943ZM47.5718 11.3943C47.1777 11.3943 47.0627 11.3166 47.0627 11.0507C47.0627 10.7286 47.1729 10.708 48.8297 10.7212L50.5967 10.7353L51.4422 11.709C51.9069 12.2444 53.4221 13.9195 54.8089 15.4311C56.1958 16.9428 57.7881 18.7013 58.3471 19.3391C58.9063 19.9769 59.4326 20.4987 59.5167 20.4987C59.6031 20.4987 59.6462 18.6971 59.6154 16.3608L59.561 12.2229L59.0773 11.8086C58.8113 11.5807 58.4042 11.3943 58.1723 11.3943C57.8639 11.3943 57.751 11.3008 57.751 11.0459C57.751 10.7104 57.839 10.6992 60.1213 10.7453C62.0619 10.7844 62.4917 10.8386 62.4917 11.0437C62.4917 11.1899 62.2517 11.3433 61.9154 11.4118C61.5986 11.4764 61.2494 11.6186 61.1397 11.7279C60.9981 11.8689 60.9259 13.6924 60.8909 18.0163L60.8414 24.106H60.3418C59.9117 24.106 59.3997 23.622 56.6623 20.6275C54.9134 18.7141 52.8719 16.4403 52.1258 15.5744C51.3795 14.7084 50.7109 13.9933 50.6398 13.9855C50.4397 13.9631 50.4881 21.6999 50.6927 22.4343C50.8523 23.0065 50.9621 23.1051 51.6401 23.2859C52.1861 23.4313 52.4069 23.5789 52.4069 23.7981C52.4069 24.0796 52.1987 24.106 49.9934 24.106C47.7485 24.106 47.5799 24.0836 47.5799 23.784C47.5799 23.5647 47.7423 23.4296 48.0893 23.3604C49.1419 23.1507 49.2118 22.8177 49.2709 17.7284C49.3039 14.878 49.2554 12.8836 49.1425 12.466C48.9441 11.7317 48.4497 11.3943 47.5718 11.3943ZM65.6481 11.3943C65.2787 11.3943 65.1638 11.3127 65.1638 11.0507C65.1638 10.7224 65.2787 10.7071 67.7497 10.7071C70.2205 10.7071 70.3355 10.7224 70.3355 11.0507C70.3355 11.3027 70.2205 11.3943 69.9045 11.3943C69.6675 11.3943 69.3153 11.552 69.1218 11.7447C68.7803 12.085 68.7715 12.2542 68.8202 17.5135C68.8675 22.6475 68.8878 22.9445 69.2047 23.1753C69.3889 23.3093 69.7185 23.4189 69.9374 23.4189C70.2205 23.4189 70.3355 23.518 70.3355 23.7625C70.3355 24.0908 70.2205 24.106 67.7497 24.106C65.3375 24.106 65.1638 24.0844 65.1638 23.7845C65.1638 23.5427 65.333 23.4359 65.8467 23.354C66.8669 23.1915 66.919 22.8587 66.8554 16.9201C66.8046 12.1644 66.7827 11.8679 66.4669 11.6379C66.2827 11.5039 65.9143 11.3943 65.6481 11.3943ZM83.6858 11.3943C83.4499 11.3943 83.2706 11.2635 83.2147 11.0507C83.1278 10.7185 83.2097 10.7071 85.6945 10.7071C88.1491 10.7071 88.2641 10.7224 88.2641 11.0507C88.2641 11.3147 88.1491 11.3943 87.7679 11.3943C86.6827 11.3943 86.7071 11.5908 88.3497 16.0832C89.1855 18.37 89.9974 20.5423 90.1534 20.9104L90.437 21.5799L91.7537 18.076C93.3037 13.9516 93.505 13.1889 93.2418 12.4366C93.0583 11.9124 92.345 11.3943 91.8067 11.3943C91.6546 11.3943 91.5395 11.2465 91.5395 11.0507C91.5395 10.7219 91.6546 10.7071 94.2117 10.7071C96.7687 10.7071 96.8837 10.7219 96.8837 11.0507C96.8837 11.2952 96.7687 11.3943 96.4857 11.3943C95.7609 11.3943 95.4413 11.7794 95.5454 12.5277C95.6526 13.298 98.6175 21.5765 98.7419 21.4527C98.9442 21.2512 102.228 12.3392 102.228 11.9919C102.228 11.5757 101.936 11.3943 101.266 11.3943C100.964 11.3943 100.849 11.2996 100.849 11.0507C100.849 10.7262 100.964 10.7071 102.917 10.7071C104.672 10.7071 104.986 10.7477 104.986 10.9738C104.986 11.1205 104.771 11.3151 104.508 11.4063C103.917 11.6116 103.769 11.8459 103.028 13.7439C102.702 14.5773 101.683 17.1859 100.764 19.5403C99.8438 21.8949 99.0517 23.9241 99.0034 24.0496C98.955 24.1752 98.6699 24.2779 98.3697 24.2779H97.8241L96.5858 21.0569C95.9046 19.2856 95.0999 17.1869 94.7978 16.3933C94.2797 15.0335 94.2362 14.9744 94.0413 15.3625C93.9275 15.5893 93.1094 17.6917 92.2229 20.0347L90.6114 24.2947L90.0099 24.2433L89.4085 24.192L87.1145 18.1931C85.8329 14.8415 84.6543 12.0175 84.4437 11.7942C84.2362 11.5741 83.8953 11.3943 83.6858 11.3943ZM118.156 11.4671C118.127 11.4019 118.127 11.1674 118.127 11.1674C118.127 11.1674 118.12 11.0828 118.156 11.0377C118.191 10.9927 118.204 10.9915 118.331 10.9794L118.332 10.9793C118.797 10.935 119.731 10.8605 120.51 10.8265C120.582 10.8234 120.661 10.8198 120.747 10.8159L120.749 10.8158L120.75 10.8158L120.751 10.8157C121.609 10.7768 123.143 10.7248 124.198 10.7775C126.222 10.8786 127.662 11.857 128.152 13.4737C128.643 15.0904 128.384 16.608 127.715 17.574C127.046 18.54 125.922 19.3717 124.053 19.3176C122.51 19.2729 122.097 18.984 121.767 18.7532C121.697 18.7044 121.631 18.6581 121.559 18.6175V20.6792C121.575 22.0853 121.587 22.7607 121.696 23.0107C121.843 23.3472 122.174 23.5545 122.82 23.7135C122.82 23.7135 123.113 23.782 123.188 23.8551C123.264 23.9281 123.264 24.0904 123.264 24.0904C123.264 24.0904 123.279 24.2421 123.218 24.3195C123.158 24.3968 123.041 24.3813 123.041 24.3813L120.18 24.3583L118.454 24.3537C118.454 24.3537 118.273 24.3884 118.205 24.3156C118.138 24.2427 118.144 24.0908 118.144 24.0908C118.144 24.0908 118.159 23.9272 118.238 23.854C118.317 23.7807 118.612 23.6988 118.612 23.6988C119.277 23.512 119.566 23.3144 119.716 22.9421C119.838 22.642 119.839 22.0855 119.837 17.5437C119.836 13.2367 119.83 12.4332 119.731 12.2022C119.585 11.8601 119.219 11.7695 118.698 11.6405L118.698 11.6404C118.594 11.6148 118.485 11.5877 118.37 11.5569C118.37 11.5569 118.185 11.5324 118.156 11.4671ZM126.487 14.9816C126.487 15.6879 126.475 16.7936 125.723 17.5004C124.971 18.2072 123.491 18.4007 122.486 18.2039C122.169 18.1419 121.988 18.0463 121.848 17.9725L121.834 17.9652L121.577 17.8297L121.562 15.3483C121.553 13.7935 121.569 12.7805 121.606 12.6357C121.639 11.8158 122.848 11.7139 123.439 11.7442C125.967 11.7442 126.413 13.8741 126.487 14.9816ZM110.218 10.8034C110.218 10.8034 110.094 10.8507 109.907 10.9217L109.232 11.2703L108.746 12.4838C108.479 13.1511 107.99 14.3763 107.659 15.2063C107.058 16.718 106.66 17.7112 106.242 18.7479C106.119 19.0528 105.748 19.9813 105.417 20.8113C105.086 21.6412 104.756 22.4311 104.682 22.5665C104.67 22.5891 104.657 22.6133 104.644 22.6389C104.459 22.9867 104.137 23.5907 103.57 23.682C103.57 23.682 103.258 23.7127 103.142 23.8268C103.026 23.9411 103.038 24.0344 103.038 24.0344V24.1783C103.038 24.1783 103.048 24.248 103.114 24.2827C103.179 24.3175 103.268 24.3195 103.268 24.3195L105.344 24.2959H107.49C107.49 24.2959 107.641 24.3136 107.7 24.2651C107.758 24.2165 107.775 24.1445 107.775 24.1445V23.9931C107.775 23.9931 107.745 23.8288 107.66 23.7647C107.575 23.7007 107.256 23.6568 107.256 23.6568C106.397 23.5439 106.249 22.8941 106.355 22.3099C106.408 22.0228 106.753 20.9609 107.142 19.8919L107.276 19.5224L109.524 19.5052C110.761 19.4957 111.829 19.5021 111.897 19.5195C111.995 19.5441 112.131 19.8216 112.533 20.8099C113.14 22.3072 113.189 22.4896 113.054 22.7697C113.046 22.7868 113.038 22.8056 113.028 22.8259C112.902 23.0968 112.657 23.6232 112.039 23.6768C112.039 23.6768 111.711 23.6881 111.629 23.7861C111.548 23.8843 111.566 23.9971 111.566 23.9971V24.1469C111.566 24.1469 111.587 24.2348 111.629 24.2696C111.672 24.3044 111.743 24.2956 111.743 24.2956L113.784 24.2809L116.653 24.2808C116.653 24.2808 116.765 24.2928 116.796 24.2496C116.826 24.2063 116.833 24.1553 116.833 24.1553V23.9563C116.833 23.9563 116.82 23.8504 116.765 23.792C116.71 23.7337 116.338 23.6721 116.338 23.6721C115.863 23.5955 115.626 23.2032 115.45 22.9111C115.405 22.8365 115.364 22.7685 115.324 22.714C115.242 22.6027 114.95 21.9925 114.722 21.4057C114.493 20.8189 113.978 19.4933 113.576 18.4601C113.175 17.4269 112.614 15.9856 112.331 15.2573C112.048 14.5289 111.509 13.1431 111.134 12.1776C111.073 12.0191 111.018 11.8768 110.968 11.7494L110.968 11.7488C110.717 11.1004 110.616 10.8388 110.588 10.8034C110.498 10.6884 110.218 10.8034 110.218 10.8034ZM110.084 14.7488C109.994 14.5287 109.834 14.1337 109.73 13.8712C109.541 13.394 109.469 13.2841 109.41 13.3827C109.393 13.4115 109.274 13.7376 109.145 14.1075C108.313 16.5021 107.936 17.5804 107.861 17.7836C107.813 17.9113 107.775 18.0429 107.775 18.0761C107.775 18.1143 108.451 18.1365 109.611 18.1365C110.621 18.1365 111.447 18.124 111.447 18.1087C111.447 18.0933 111.357 17.8648 111.247 17.6005C111.137 17.3363 110.867 16.6767 110.648 16.1347C110.428 15.5927 110.175 14.9691 110.084 14.7488Z" fill="#657795"/>
</svg>
