<svg width="146" height="34" viewBox="0 0 146 34" fill="none" xmlns="http://www.w3.org/2000/svg">
<g clip-path="url(#clip0_610_3079)">
<path d="M51.9091 12.0936V14.0205H51.968C52.6613 12.9889 53.8124 11.7739 56.3637 11.7739C58.3486 11.7739 59.8712 12.7842 60.5238 14.3104H60.5827C61.1401 13.5388 61.779 12.9548 62.495 12.5412C63.3425 12.051 64.285 11.7697 65.4723 11.7697C68.1596 11.7697 70.5387 13.5175 70.5387 17.9254V26.285H66.4421V18.5094C66.4421 16.2756 65.6355 14.9839 63.9588 14.9839C62.7307 14.9839 61.838 15.7598 61.4981 16.7147C61.3803 17.0429 61.3259 17.4905 61.3259 17.8657V26.2893H57.2293V18.1939C57.2293 16.2969 56.4543 14.9797 54.8003 14.9797C53.477 14.9797 52.6478 15.9601 52.3079 16.7999C52.1629 17.158 52.1175 17.5715 52.1175 17.9595V26.285H48.0164V12.0936H51.9091ZM91.6834 12.0936V14.7708H91.7967C92.549 12.7246 94.3345 11.7739 95.9024 11.7739C96.2967 11.7739 96.5142 11.8038 96.8314 11.8634V15.5807C96.4553 15.5296 96.1063 15.4784 95.6169 15.4784C93.8405 15.4784 92.6034 16.4504 92.2907 17.9722C92.2227 18.2877 92.2001 18.6287 92.2001 19.0209V26.2893H87.9947V12.0936H91.6834ZM102.541 7.3916V11.8592H106.094V15.4742H102.541V20.8071C102.541 22.5336 103.008 23.3691 104.395 23.3691C105.047 23.3691 105.528 23.2924 105.945 23.1944L105.999 26.1912C105.442 26.3873 104.254 26.6005 103.049 26.6005C101.63 26.6005 100.448 26.1358 99.7271 25.4154C98.9024 24.5926 98.5217 23.2455 98.5217 21.3272V7.3916H102.541ZM45.1615 26.285H41.083V7.3916H45.1615V26.285ZM34.2855 21.2164C34.2855 21.4764 34.2628 21.7492 34.1858 21.9837C33.8686 22.9684 32.7855 23.7997 31.4351 23.7997C30.3067 23.7997 29.4094 23.1986 29.4094 21.924C29.4094 19.9758 31.6934 19.4344 34.29 19.4472V21.2164H34.2855ZM38.3594 17.8188C38.3594 14.6003 36.9002 11.7739 31.9653 11.7739C29.4321 11.7739 27.42 12.4432 26.3234 13.04L27.1255 15.6234C28.127 15.0265 29.7266 14.5363 31.2402 14.5363C33.7462 14.532 34.1541 15.8706 34.1541 16.7275V16.9321C28.6934 16.9236 25.2448 18.7012 25.2448 22.3247C25.2448 24.5372 26.9986 26.609 30.0529 26.609C31.9336 26.609 33.5015 25.9056 34.4441 24.7759H34.5347C34.5347 24.7759 35.1601 27.2271 38.5951 26.2893C38.4138 25.2662 38.3549 24.1791 38.3549 22.8704V17.8188H38.3594ZM4.75721 7.3916C5.17866 9.39093 6.37501 15.1971 6.37501 15.1971C6.87803 17.5843 7.34026 20.0867 7.68919 22.0647H7.75264C8.09251 19.963 8.62725 17.9723 9.19824 15.5083L11.2148 7.3916H15.6785L17.5637 15.7171C18.0576 18.0319 18.4519 19.8181 18.7646 21.9709H18.8235C19.1633 19.7968 19.6075 17.9381 20.0923 15.5594L21.905 7.3916H26.1874L20.8808 26.285C17.5002 26.9799 16.2042 25.701 15.7419 23.6718C15.2797 21.6384 14.3734 17.7719 14.3734 17.7719C13.9066 15.6532 13.5441 14.1612 13.2903 11.9871H13.2269C12.8643 14.1399 12.4837 15.6489 11.9218 17.7676L9.69672 26.2893C6.2436 26.9372 5.04724 25.9781 4.38562 23.3734C3.81463 21.1439 0.252747 7.39586 0.252747 7.39586H4.75721V7.3916ZM81.1972 21.2164C81.1972 21.4764 81.1745 21.7492 81.0975 21.9837C80.7803 22.9684 79.6972 23.7997 78.3468 23.7997C77.2184 23.7997 76.3211 23.1986 76.3211 21.924C76.3211 19.9758 78.6051 19.4344 81.2017 19.4472V21.2164H81.1972ZM85.2711 17.8188C85.2711 14.6003 83.812 11.7739 78.877 11.7739C76.3438 11.7739 74.3317 12.4432 73.2351 13.04L74.0372 15.6234C75.0387 15.0265 76.6383 14.5363 78.1519 14.5363C80.6534 14.532 81.0658 15.8706 81.0658 16.7275V16.9321C75.6096 16.9236 72.1611 18.7012 72.1611 22.3247C72.1611 24.5372 73.9193 26.609 76.9692 26.609C78.8453 26.609 80.4177 25.9056 81.3558 24.7759H81.451C81.451 24.7759 82.0763 27.2271 85.5113 26.2893C85.3301 25.2662 85.2711 24.1791 85.2711 22.8704V17.8188Z" fill="#657795"/>
<path d="M122.627 19.7777C123.029 20.4677 123.002 21.2378 122.573 21.5894L115.156 26.713C114.383 27.1537 113.227 26.6195 112.572 25.5022C111.912 24.3805 112.03 23.1296 112.802 22.6889L121.014 18.923C121.529 18.7272 122.225 19.0877 122.627 19.7777ZM132.388 19.7777C132.795 19.0877 133.486 18.7316 134.001 18.9186L142.218 22.6845C142.99 23.1252 143.103 24.376 142.448 25.4978C141.788 26.6151 140.628 27.1448 139.86 26.7086L132.443 21.585C132.018 21.2378 131.986 20.4632 132.388 19.7777ZM127.505 22.5554C128.314 22.5554 128.978 22.9649 129.068 23.5035L129.868 32.3975C129.868 33.2789 128.824 34 127.51 34C126.2 34 125.152 33.2789 125.152 32.3975L125.947 23.5035C126.037 22.9649 126.701 22.5554 127.505 22.5554ZM132.443 12.415L139.86 7.28699C140.628 6.84629 141.788 7.37601 142.448 8.49777C143.103 9.61953 142.99 10.8704 142.218 11.3111L134.001 15.0814C133.486 15.2684 132.79 14.9123 132.388 14.2223C131.986 13.5323 132.018 12.7622 132.443 12.415ZM121.014 15.0814L112.802 11.3111C112.034 10.8704 111.917 9.61953 112.572 8.49777C113.227 7.37601 114.388 6.84629 115.156 7.28699L122.573 12.415C123.002 12.7578 123.029 13.5323 122.627 14.2223C122.225 14.9123 121.529 15.2684 121.014 15.0814ZM125.947 10.4965L125.152 1.60251C125.152 0.721131 126.195 0 127.51 0C128.824 0 129.868 0.721131 129.868 1.60251L129.068 10.4965C128.978 11.0306 128.314 11.4446 127.505 11.4446C126.701 11.4446 126.037 11.0306 125.947 10.4965ZM144.454 26.6774V26.4548H144.657C144.725 26.4548 144.77 26.4993 144.77 26.5661C144.77 26.6284 144.725 26.6774 144.657 26.6774H144.454ZM144.286 27.0825C144.286 27.1047 144.304 27.127 144.332 27.127H144.417C144.44 27.127 144.463 27.1047 144.463 27.0825V26.8288H144.603L144.716 27.0958C144.725 27.1136 144.738 27.127 144.756 27.127H144.86C144.892 27.127 144.914 27.0958 144.901 27.0647C144.86 26.9846 144.819 26.9 144.779 26.8154C144.847 26.7931 144.95 26.7264 144.95 26.5661C144.95 26.397 144.81 26.299 144.67 26.299H144.332C144.309 26.299 144.286 26.3213 144.286 26.3435V27.0825ZM143.921 26.713C143.921 26.3524 144.219 26.0587 144.585 26.0587C144.95 26.0587 145.249 26.348 145.249 26.713C145.249 27.0736 144.955 27.3674 144.585 27.3674C144.214 27.3674 143.921 27.0736 143.921 26.713ZM143.762 26.713C143.762 27.1582 144.128 27.5232 144.585 27.5232C145.036 27.5232 145.407 27.1582 145.407 26.713C145.407 26.2679 145.036 25.9029 144.585 25.9029C144.128 25.9029 143.762 26.2679 143.762 26.713Z" fill="#657795"/>
</g>
<defs>
<clipPath id="clip0_610_3079">
<rect width="145.154" height="34" fill="white" transform="translate(0.252747)"/>
</clipPath>
</defs>
</svg>
