<svg width="14" height="17" viewBox="0 0 14 17" fill="none" xmlns="http://www.w3.org/2000/svg">
<path d="M7.00003 0.899902C3.68632 0.899902 1.00003 3.45188 1.00003 6.5999V10.0064L0.292922 10.6782C0.00692448 10.9498 -0.0786313 11.3585 0.0761497 11.7135C0.230931 12.0684 0.595567 12.2999 1.00003 12.2999H13C13.4045 12.2999 13.7691 12.0684 13.9239 11.7135C14.0787 11.3585 13.9931 10.9498 13.7071 10.6782L13 10.0064V6.5999C13 3.45188 10.3137 0.899902 7.00003 0.899902Z" fill="#62688F"/>
<path d="M7 16.0999C5.34315 16.0999 4 14.8239 4 13.2499H10C10 14.8239 8.65685 16.0999 7 16.0999Z" fill="#62688F"/>
</svg>
