<svg width="18" height="18" viewBox="0 0 18 18" fill="none" xmlns="http://www.w3.org/2000/svg">
<path d="M0.666504 2.33335C0.666504 1.41288 1.4127 0.666687 2.33317 0.666687H10.6665C11.587 0.666687 12.3332 1.41288 12.3332 2.33335V5.66669H15.6665C16.587 5.66669 17.3332 6.41288 17.3332 7.33335V15.6667C17.3332 16.5872 16.587 17.3334 15.6665 17.3334H7.33317C6.4127 17.3334 5.6665 16.5872 5.6665 15.6667V12.3334H2.33317C1.4127 12.3334 0.666504 11.5872 0.666504 10.6667V2.33335ZM7.33317 12.3334V15.6667H15.6665V7.33335H12.3332V10.6667C12.3332 11.5872 11.587 12.3334 10.6665 12.3334H7.33317ZM10.6665 10.6667V2.33335L2.33317 2.33335V10.6667H10.6665Z" fill="white"/>
</svg>
