<svg width="12" height="8" viewBox="0 0 12 8" fill="none" xmlns="http://www.w3.org/2000/svg">
<path d="M0.666016 0.666667C0.666016 0.298477 0.964492 0 1.33268 0H10.666C11.0342 0 11.3327 0.298477 11.3327 0.666667C11.3327 1.03486 11.0342 1.33333 10.666 1.33333H1.33268C0.964492 1.33333 0.666016 1.03486 0.666016 0.666667ZM1.99935 4C1.99935 3.63181 2.29783 3.33333 2.66602 3.33333H9.33268C9.70087 3.33333 9.99935 3.63181 9.99935 4C9.99935 4.36819 9.70087 4.66667 9.33268 4.66667H2.66602C2.29783 4.66667 1.99935 4.36819 1.99935 4ZM3.33268 7.33333C3.33268 6.96514 3.63116 6.66667 3.99935 6.66667H7.99935C8.36754 6.66667 8.66602 6.96514 8.66602 7.33333C8.66602 7.70152 8.36754 8 7.99935 8H3.99935C3.63116 8 3.33268 7.70152 3.33268 7.33333Z" fill="#0D0D0D"/>
</svg>
