<svg width="25" height="24" viewBox="0 0 25 24" fill="none" xmlns="http://www.w3.org/2000/svg">
<path d="M15.5996 8.10577H10.4004C7.69397 8.10577 5.5 10.3624 5.5 13.1461V15.9596C5.5 18.7433 7.69397 20.9999 10.4004 20.9999H15.5996C18.306 20.9999 20.5 18.7433 20.5 15.9596V13.1461C20.5 10.3624 18.306 8.10577 15.5996 8.10577Z" stroke="#5F6062" stroke-width="1.5" stroke-linecap="round" stroke-linejoin="round"/>
<path d="M9.26721 8.1048V6.83882C9.26721 5.82073 9.66055 4.84413 10.3605 4.12423C11.0604 3.40433 12.0096 3 12.9994 3C13.9892 3 14.9385 3.40433 15.6384 4.12423C16.3383 4.84413 16.7314 5.82073 16.7314 6.83882V8.1048" stroke="#5F6062" stroke-width="1.5" stroke-linecap="round" stroke-linejoin="round"/>
<path d="M12.9994 12.9849V15.878" stroke="#5F6062" stroke-width="1.5" stroke-linecap="round" stroke-linejoin="round"/>
</svg>
