<svg width="32" height="32" viewBox="0 0 32 32" fill="none" xmlns="http://www.w3.org/2000/svg">
<rect x="0.800781" width="31.2" height="32" rx="15.6" fill="#5E44FF"/>
<path d="M23.4749 16.8944C23.7967 16.725 24 16.3788 24 16C24 15.6212 23.7967 15.275 23.4749 15.1056L10.1749 8.10558C9.83789 7.92823 9.4332 7.97724 9.1433 8.2305C8.85339 8.48376 8.73306 8.89342 8.83655 9.27473L10.1937 14.2747C10.3102 14.704 10.683 15 11.1071 15H15.45C15.9747 15 16.4 15.4477 16.4 16C16.4 16.5523 15.9747 17 15.45 17H11.1071C10.683 17 10.3102 17.296 10.1937 17.7253L8.83655 22.7253C8.73306 23.1066 8.85339 23.5163 9.1433 23.7695C9.4332 24.0228 9.83789 24.0718 10.1749 23.8944L23.4749 16.8944Z" fill="white"/>
</svg>
