<svg width="16" height="16" viewBox="0 0 16 16" fill="none" xmlns="http://www.w3.org/2000/svg">
<path d="M7.0482 0.95785C7.34755 -0.00417966 8.65096 -0.00417916 8.95031 0.957851L10.0199 4.39514C10.1538 4.82537 10.5377 5.11666 10.9709 5.11666H14.4321C15.4009 5.11666 15.8036 6.41106 15.0199 7.00563L12.2198 9.12999C11.8693 9.39589 11.7226 9.8672 11.8565 10.2974L12.926 13.7347C13.2254 14.6968 12.1709 15.4967 11.3872 14.9022L8.58704 12.7778C8.23655 12.5119 7.76195 12.5119 7.41147 12.7778L4.6113 14.9022C3.82758 15.4967 2.7731 14.6968 3.07246 13.7347L4.14202 10.2974C4.2759 9.8672 4.12924 9.39589 3.77875 9.12999L0.978585 7.00563C0.194871 6.41106 0.597647 5.11666 1.56637 5.11666H5.02757C5.4608 5.11666 5.84475 4.82537 5.97863 4.39514L7.0482 0.95785Z" fill="#D0D5DD"/>
</svg>
